<svg width="616" height="667" viewBox="0 0 616 667" fill="none" xmlns="http://www.w3.org/2000/svg">
<line x1="63.9977" y1="541" x2="487.998" y2="540.5" stroke="#A3A3A3" stroke-width="3"/>
<line x1="192.985" y1="82.5" x2="487.995" y2="81.5" stroke="#A3A3A3" stroke-width="3"/>
<path d="M61.6953 542C81.0095 360.142 125.28 207.365 194.508 83.6667H236.826C306.053 207.365 350.324 360.142 369.638 542H325.693C324.608 528.762 323.197 515.633 321.461 502.612C319.725 489.374 317.121 472.664 313.648 452.482C310.393 432.299 308.44 420.038 307.789 415.698H123.544C122.459 422.425 120.832 432.408 118.661 445.646C116.491 458.667 114.755 469.409 113.453 477.872C112.151 486.336 110.74 496.536 109.221 508.471C107.702 520.407 106.509 531.583 105.641 542H61.6953ZM300.302 376.635C288.149 323.25 275.563 276.158 262.542 235.359C249.738 194.561 234.655 156.909 217.294 122.404H214.039C196.678 156.909 181.487 194.561 168.466 235.359C155.662 276.158 143.184 323.25 131.031 376.635H300.302Z" fill="black"/>
<path fill-rule="evenodd" clip-rule="evenodd" d="M486.985 82.4393L477.439 91.9853C476.854 92.5711 476.854 93.5208 477.439 94.1066C478.025 94.6924 478.975 94.6924 479.561 94.1066L486.546 87.1213V95.1575V528.428V536.464L479.561 529.479C478.975 528.893 478.025 528.893 477.439 529.479C476.854 530.065 476.854 531.015 477.439 531.6L486.985 541.146C487.571 541.732 488.521 541.732 489.107 541.146L498.653 531.6C499.238 531.015 499.238 530.065 498.653 529.479C498.067 528.893 497.117 528.893 496.531 529.479L489.546 536.464V528.428V95.1575V87.1213L496.531 94.1066C497.117 94.6924 498.067 94.6924 498.653 94.1066C499.238 93.5208 499.238 92.5711 498.653 91.9853L489.107 82.4393C488.521 81.8536 487.571 81.8536 486.985 82.4393Z" fill="black"/>
<path d="M2 543C15 430.667 58.6 172.2 139 83" stroke="#FF9900" stroke-width="3"/>
<path d="M149.135 72.8717C149.064 72.0463 148.338 71.4347 147.512 71.5055L134.062 72.6601C133.237 72.7309 132.625 73.4575 132.696 74.2829C132.767 75.1082 133.493 75.7199 134.318 75.6491L146.275 74.6228L147.301 86.5788C147.372 87.4042 148.098 88.0159 148.924 87.9451C149.749 87.8742 150.361 87.1477 150.29 86.3223L149.135 72.8717ZM140.147 84.2295L148.788 73.9661L146.493 72.034L137.853 82.2974L140.147 84.2295Z" fill="#FF9900"/>
<circle cx="84" cy="530" r="64" fill="#1B8EFF" fill-opacity="0.5"/>
<circle cx="216" cy="129" r="64" fill="#1B8EFF" fill-opacity="0.5"/>
<path d="M328.458 590.547C329.039 591.139 329.988 591.147 330.579 590.567L340.213 581.11C340.804 580.529 340.813 579.58 340.233 578.988C339.652 578.397 338.703 578.388 338.112 578.969L329.548 587.375L321.142 578.812C320.561 578.221 319.612 578.212 319.021 578.792C318.429 579.373 318.421 580.322 319.001 580.914L328.458 590.547ZM325.515 540.217C327.711 555.275 328.245 566.114 328.029 589.483L331.029 589.51C331.245 566.064 330.711 555.055 328.484 539.784L325.515 540.217Z" fill="#A3A3A3"/>
<path d="M377.114 616.14C377.749 616.672 378.695 616.589 379.227 615.954L387.901 605.609C388.433 604.974 388.35 604.028 387.715 603.496C387.08 602.963 386.134 603.046 385.602 603.681L377.892 612.877L368.696 605.168C368.061 604.635 367.115 604.719 366.583 605.353C366.051 605.988 366.134 606.934 366.769 607.467L377.114 616.14ZM370.167 539.224C370.144 539.121 370.097 538.913 370.03 538.746C370.027 538.737 369.949 538.522 369.772 538.314C369.716 538.248 369.374 537.836 368.743 537.785C367.923 537.72 367.473 538.283 367.341 538.501C367.207 538.719 367.164 538.918 367.152 538.976C367.134 539.061 367.126 539.131 367.123 539.171C367.116 539.251 367.116 539.319 367.117 539.355C367.12 539.572 367.165 539.97 367.219 540.403C367.337 541.354 367.562 542.978 367.865 545.13C368.474 549.447 369.405 555.935 370.458 563.584C372.564 578.886 375.148 598.791 376.584 615.122L379.572 614.859C378.129 598.45 375.536 578.483 373.43 563.175C372.376 555.52 371.443 549.019 370.836 544.712C370.531 542.552 370.31 540.955 370.196 540.033C370.168 539.804 370.147 539.623 370.133 539.489C370.117 539.336 370.116 539.296 370.116 539.314C370.116 539.321 370.117 539.366 370.112 539.429C370.109 539.459 370.103 539.522 370.086 539.602C370.075 539.654 370.033 539.849 369.901 540.064C369.77 540.279 369.323 540.841 368.504 540.776C367.876 540.726 367.536 540.315 367.483 540.252C367.378 540.128 367.319 540.016 367.298 539.975C367.27 539.923 367.253 539.88 367.244 539.857C367.206 539.763 367.204 539.724 367.242 539.89L370.167 539.224Z" fill="#A3A3A3"/>
<path d="M615.065 377.561C615.651 376.975 615.651 376.025 615.065 375.439L605.519 365.893C604.934 365.308 603.984 365.308 603.398 365.893C602.812 366.479 602.812 367.429 603.398 368.015L611.883 376.5L603.398 384.985C602.812 385.571 602.812 386.521 603.398 387.107C603.984 387.692 604.934 387.692 605.519 387.107L615.065 377.561ZM129.995 378H614.005V375H129.995V378Z" fill="#A3A3A3"/>
<path d="M615.071 417.561C615.656 416.975 615.656 416.025 615.071 415.439L605.525 405.893C604.939 405.308 603.989 405.308 603.403 405.893C602.817 406.479 602.817 407.429 603.403 408.015L611.889 416.5L603.403 424.985C602.817 425.571 602.817 426.521 603.403 427.107C603.989 427.692 604.939 427.692 605.525 427.107L615.071 417.561ZM123 418H614.01V415H123V418Z" fill="#A3A3A3"/>
<line x1="63.9982" y1="541" x2="487.999" y2="540.5" stroke="#A3A3A3" stroke-width="3"/>
<line x1="192.985" y1="82.5" x2="487.995" y2="81.5" stroke="#A3A3A3" stroke-width="3"/>
<path d="M61.6953 542C81.0095 360.142 125.28 207.365 194.508 83.6667H236.826C306.053 207.365 350.324 360.142 369.638 542H325.693C324.608 528.762 323.197 515.633 321.461 502.612C319.725 489.374 317.121 472.664 313.648 452.482C310.393 432.299 308.44 420.038 307.789 415.698H123.544C122.459 422.425 120.832 432.408 118.661 445.646C116.491 458.667 114.755 469.409 113.453 477.872C112.151 486.336 110.74 496.536 109.221 508.471C107.702 520.407 106.509 531.583 105.641 542H61.6953ZM300.302 376.635C288.149 323.25 275.563 276.158 262.542 235.359C249.738 194.561 234.655 156.909 217.294 122.404H214.039C196.678 156.909 181.487 194.561 168.466 235.359C155.662 276.158 143.184 323.25 131.031 376.635H300.302Z" fill="black"/>
<path fill-rule="evenodd" clip-rule="evenodd" d="M486.985 82.4393L477.439 91.9853C476.854 92.5711 476.854 93.5208 477.439 94.1066C478.025 94.6924 478.975 94.6924 479.561 94.1066L486.546 87.1213V95.1575V528.428V536.464L479.561 529.479C478.975 528.893 478.025 528.893 477.439 529.479C476.854 530.065 476.854 531.015 477.439 531.6L486.985 541.146C487.571 541.732 488.521 541.732 489.107 541.146L498.653 531.6C499.238 531.015 499.238 530.065 498.653 529.479C498.067 528.893 497.117 528.893 496.531 529.479L489.546 536.464V528.428V95.1575V87.1213L496.531 94.1066C497.117 94.6924 498.067 94.6924 498.653 94.1066C499.238 93.5208 499.238 92.5711 498.653 91.9853L489.107 82.4393C488.521 81.8536 487.571 81.8536 486.985 82.4393Z" fill="black"/>
<path d="M2 543C15 430.667 58.6 172.2 139 83" stroke="#FF9900" stroke-width="3"/>
<path d="M149.135 72.872C149.064 72.0466 148.338 71.4349 147.512 71.5058L134.062 72.6603C133.237 72.7312 132.625 73.4577 132.696 74.2831C132.767 75.1085 133.493 75.7202 134.318 75.6493L146.275 74.623L147.301 86.5791C147.372 87.4045 148.098 88.0162 148.924 87.9453C149.749 87.8745 150.361 87.1479 150.29 86.3225L149.135 72.872ZM140.147 84.2297L148.788 73.9663L146.493 72.0342L137.853 82.2976L140.147 84.2297Z" fill="#FF9900"/>
<path d="M328.459 590.547C329.039 591.138 329.989 591.147 330.58 590.567L340.214 581.109C340.805 580.529 340.813 579.579 340.233 578.988C339.653 578.397 338.703 578.388 338.112 578.968L329.549 587.375L321.142 578.812C320.562 578.22 319.612 578.212 319.021 578.792C318.43 579.372 318.421 580.322 319.001 580.913L328.459 590.547ZM325.516 540.216C327.711 555.274 328.245 566.113 328.029 589.482L331.029 589.51C331.246 566.063 330.711 555.054 328.484 539.783L325.516 540.216Z" fill="#A3A3A3"/>
<path d="M377.114 616.14C377.749 616.672 378.695 616.589 379.227 615.954L387.901 605.609C388.433 604.974 388.35 604.028 387.715 603.496C387.08 602.963 386.134 603.046 385.602 603.681L377.892 612.877L368.696 605.168C368.062 604.635 367.115 604.719 366.583 605.353C366.051 605.988 366.134 606.934 366.769 607.467L377.114 616.14ZM370.167 539.224C370.144 539.121 370.097 538.913 370.03 538.746C370.027 538.737 369.949 538.522 369.772 538.314C369.716 538.248 369.374 537.836 368.743 537.785C367.923 537.72 367.474 538.283 367.341 538.501C367.208 538.719 367.164 538.918 367.152 538.976C367.134 539.061 367.126 539.131 367.123 539.171C367.116 539.251 367.116 539.319 367.117 539.355C367.12 539.572 367.165 539.97 367.219 540.403C367.337 541.354 367.562 542.978 367.865 545.13C368.474 549.447 369.405 555.935 370.458 563.584C372.564 578.886 375.148 598.791 376.584 615.122L379.572 614.859C378.13 598.45 375.536 578.483 373.43 563.175C372.376 555.52 371.443 549.019 370.836 544.712C370.531 542.552 370.311 540.955 370.196 540.033C370.168 539.804 370.147 539.623 370.133 539.489C370.117 539.336 370.116 539.296 370.116 539.314C370.117 539.321 370.117 539.366 370.112 539.429C370.109 539.459 370.103 539.522 370.086 539.602C370.075 539.654 370.033 539.849 369.901 540.064C369.77 540.279 369.323 540.841 368.504 540.776C367.876 540.726 367.536 540.315 367.483 540.252C367.378 540.128 367.319 540.016 367.298 539.975C367.271 539.923 367.253 539.88 367.244 539.857C367.206 539.763 367.204 539.724 367.242 539.89L370.167 539.224Z" fill="#A3A3A3"/>
<path d="M615.065 377.561C615.651 376.975 615.651 376.025 615.065 375.439L605.519 365.893C604.933 365.308 603.984 365.308 603.398 365.893C602.812 366.479 602.812 367.429 603.398 368.015L611.883 376.5L603.398 384.985C602.812 385.571 602.812 386.521 603.398 387.107C603.984 387.692 604.933 387.692 605.519 387.107L615.065 377.561ZM129.995 378H614.004V375H129.995V378Z" fill="#A3A3A3"/>
<path d="M615.07 417.561C615.656 416.975 615.656 416.025 615.07 415.439L605.524 405.893C604.938 405.308 603.989 405.308 603.403 405.893C602.817 406.479 602.817 407.429 603.403 408.015L611.888 416.5L603.403 424.985C602.817 425.571 602.817 426.521 603.403 427.107C603.989 427.692 604.938 427.692 605.524 427.107L615.07 417.561ZM122.999 418H614.009V415H122.999V418Z" fill="#A3A3A3"/>
</svg>
