<svg width="543" height="561" viewBox="0 0 543 561" fill="none" xmlns="http://www.w3.org/2000/svg">
<path d="M344.167 375.333H280.365C272.335 375.333 266.042 375.55 261.484 375.984C257.144 376.418 251.61 378.046 244.883 380.867C238.155 383.471 232.188 387.486 226.979 392.911C214.826 405.715 208.75 422.534 208.75 443.367C208.75 461.813 213.958 477.221 224.375 489.591C235.009 501.961 249.332 508.146 267.344 508.146C277.76 508.146 286.984 506.627 295.013 503.589C303.26 500.55 309.987 496.753 315.195 492.195C320.621 487.638 325.178 481.67 328.867 474.292C332.773 466.913 335.595 460.077 337.331 453.784C339.284 447.273 340.803 439.569 341.888 430.672C342.973 421.774 343.624 414.504 343.841 408.862C344.058 403.22 344.167 396.492 344.167 388.68V375.333ZM292.083 203.458C310.747 203.458 327.131 206.388 341.237 212.247C355.343 217.89 366.953 228.74 376.068 244.799C382.578 256.301 385.833 274.096 385.833 298.185V542H344.167V501.961H340.911C318.993 532.126 291.866 547.208 259.531 547.208C233.49 547.208 211.571 537.443 193.776 517.911C175.981 498.38 167.083 473.749 167.083 444.018C167.083 412.768 176.632 387.595 195.729 368.497C202.674 361.77 210.052 356.236 217.865 351.896C225.677 347.556 233.815 344.626 242.279 343.107C250.959 341.371 257.687 340.394 262.461 340.177C267.452 339.743 273.637 339.526 281.016 339.526H344.167V299.812C344.167 280.932 342.214 268.128 338.307 261.401C334.618 255.108 329.301 250.442 322.357 247.404C315.629 244.148 305.538 242.521 292.083 242.521C266.042 242.521 234.792 244.799 198.333 249.357V209.643C234.141 205.52 265.391 203.458 292.083 203.458Z" fill="black"/>
<path fill-rule="evenodd" clip-rule="evenodd" d="M9.98528 204.065L0.43934 213.611C-0.146447 214.197 -0.146447 215.147 0.43934 215.733C1.02513 216.318 1.97487 216.318 2.56066 215.733L9.54594 208.747V213.877V539.123V544.253L2.56066 537.267C1.97487 536.681 1.02513 536.681 0.43934 537.267C-0.146447 537.853 -0.146447 538.803 0.43934 539.389L9.98528 548.935C10.5711 549.52 11.5208 549.52 12.1066 548.935L21.6525 539.389C22.2383 538.803 22.2383 537.853 21.6525 537.267C21.0668 536.681 20.117 536.681 19.5312 537.267L12.5459 544.253V539.123V213.877V208.747L19.5312 215.733C20.117 216.318 21.0668 216.318 21.6525 215.733C22.2383 215.147 22.2383 214.197 21.6525 213.611L12.1066 204.065C11.5208 203.48 10.5711 203.48 9.98528 204.065Z" fill="black"/>
<circle cx="297" cy="493" r="64" fill="#1B8EFF" fill-opacity="0.5"/>
<path d="M382.151 197.069L381.087 198.126L381.087 198.126L382.151 197.069ZM177.714 177.573C177.288 178.283 177.517 179.205 178.227 179.632L189.798 186.587C190.508 187.014 191.429 186.784 191.856 186.074C192.283 185.364 192.053 184.443 191.343 184.016L181.058 177.833L187.241 167.549C187.668 166.839 187.438 165.917 186.728 165.49C186.018 165.063 185.097 165.293 184.67 166.003L177.714 177.573ZM411.398 536.602C412.892 536.738 412.892 536.737 412.892 536.734C412.892 536.732 412.893 536.729 412.893 536.724C412.894 536.716 412.895 536.702 412.897 536.685C412.9 536.65 412.905 536.598 412.911 536.53C412.923 536.392 412.941 536.187 412.965 535.917C413.013 535.376 413.082 534.574 413.171 533.525C413.347 531.428 413.599 528.347 413.9 524.406C414.502 516.525 415.3 505.207 416.085 491.452C417.655 463.944 419.173 426.68 418.965 387.672C418.758 348.673 416.825 307.884 411.481 273.342C408.808 256.07 405.277 240.322 400.665 227.122C396.06 213.943 390.338 203.188 383.216 196.012L381.087 198.126C387.758 204.846 393.295 215.124 397.833 228.112C402.364 241.08 405.86 256.635 408.516 273.8C413.828 308.131 415.758 348.752 415.965 387.688C416.173 426.614 414.657 463.812 413.09 491.281C412.306 505.014 411.509 516.313 410.909 524.178C410.609 528.11 410.357 531.184 410.181 533.273C410.093 534.318 410.024 535.117 409.977 535.654C409.953 535.923 409.935 536.126 409.923 536.262C409.917 536.33 409.912 536.381 409.909 536.415C409.907 536.432 409.906 536.444 409.905 536.453C409.905 536.457 409.905 536.46 409.905 536.462C409.904 536.464 409.904 536.465 411.398 536.602ZM383.216 196.012C369.132 181.823 349.214 173.615 327.428 169.223C305.629 164.828 281.823 164.228 259.807 165.365C237.784 166.503 217.499 169.383 202.724 171.978C195.335 173.275 189.319 174.502 185.149 175.405C183.063 175.856 181.439 176.227 180.334 176.485C179.782 176.614 179.359 176.715 179.074 176.784C178.931 176.819 178.823 176.845 178.75 176.863C178.713 176.872 178.686 176.879 178.667 176.883C178.658 176.886 178.65 176.887 178.645 176.889C178.643 176.889 178.641 176.89 178.64 176.89C178.638 176.89 178.637 176.891 179 178.346C179.363 179.802 179.363 179.802 179.364 179.801C179.365 179.801 179.366 179.801 179.368 179.8C179.372 179.799 179.379 179.798 179.387 179.796C179.404 179.791 179.43 179.785 179.465 179.776C179.535 179.759 179.639 179.734 179.778 179.7C180.057 179.633 180.472 179.534 181.017 179.406C182.106 179.152 183.715 178.785 185.784 178.337C189.921 177.441 195.897 176.222 203.243 174.932C217.937 172.352 238.095 169.491 259.962 168.361C281.838 167.231 305.371 167.837 326.835 172.164C348.313 176.494 367.583 184.522 381.087 198.126L383.216 196.012Z" fill="#FF9900"/>
<path d="M11.9394 202.939C11.3536 203.525 11.3536 204.475 11.9394 205.061L21.4853 214.607C22.0711 215.192 23.0208 215.192 23.6066 214.607C24.1924 214.021 24.1924 213.071 23.6066 212.485L15.1214 204L23.6066 195.515C24.1924 194.929 24.1924 193.979 23.6066 193.393C23.0208 192.808 22.0711 192.808 21.4853 193.393L11.9394 202.939ZM302.062 202.5L13 202.5V205.5L302.062 205.5V202.5Z" fill="#A3A3A3"/>
<path d="M11.9394 547.939C11.3536 548.525 11.3536 549.475 11.9394 550.061L21.4853 559.607C22.0711 560.192 23.0208 560.192 23.6066 559.607C24.1924 559.021 24.1924 558.071 23.6066 557.485L15.1214 549L23.6066 540.515C24.1924 539.929 24.1924 538.979 23.6066 538.393C23.0208 537.808 22.0711 537.808 21.4853 538.393L11.9394 547.939ZM302.062 547.5L13 547.5V550.5L302.062 550.5V547.5Z" fill="#A3A3A3"/>
<path d="M344.167 375.333H280.365C272.335 375.333 266.042 375.55 261.484 375.984C257.144 376.418 251.61 378.046 244.883 380.867C238.155 383.471 232.188 387.486 226.979 392.911C214.826 405.715 208.75 422.534 208.75 443.367C208.75 461.813 213.958 477.221 224.375 489.591C235.009 501.961 249.332 508.146 267.344 508.146C277.76 508.146 286.984 506.627 295.013 503.589C303.26 500.55 309.987 496.753 315.195 492.195C320.621 487.638 325.178 481.67 328.867 474.292C332.773 466.913 335.595 460.077 337.331 453.784C339.284 447.273 340.803 439.569 341.888 430.672C342.973 421.774 343.624 414.504 343.841 408.862C344.058 403.22 344.167 396.492 344.167 388.68V375.333ZM292.083 203.458C310.747 203.458 327.131 206.388 341.237 212.247C355.343 217.89 366.953 228.74 376.068 244.799C382.578 256.301 385.833 274.096 385.833 298.185V542H344.167V501.961H340.911C318.993 532.126 291.866 547.208 259.531 547.208C233.49 547.208 211.571 537.443 193.776 517.911C175.981 498.38 167.083 473.749 167.083 444.018C167.083 412.768 176.632 387.595 195.729 368.497C202.674 361.77 210.052 356.236 217.865 351.896C225.677 347.556 233.815 344.626 242.279 343.107C250.959 341.371 257.687 340.394 262.461 340.177C267.452 339.743 273.637 339.526 281.016 339.526H344.167V299.812C344.167 280.932 342.214 268.128 338.307 261.401C334.618 255.108 329.301 250.442 322.357 247.404C315.629 244.148 305.538 242.521 292.083 242.521C266.042 242.521 234.792 244.799 198.333 249.357V209.643C234.141 205.52 265.391 203.458 292.083 203.458Z" fill="black"/>
<path fill-rule="evenodd" clip-rule="evenodd" d="M9.98528 204.064L0.43934 213.61C-0.146447 214.196 -0.146447 215.146 0.43934 215.732C1.02513 216.317 1.97487 216.317 2.56066 215.732L9.54594 208.746V213.876V539.122V544.252L2.56066 537.266C1.97487 536.68 1.02513 536.68 0.43934 537.266C-0.146447 537.852 -0.146447 538.802 0.43934 539.388L9.98528 548.934C10.5711 549.519 11.5208 549.519 12.1066 548.934L21.6525 539.388C22.2383 538.802 22.2383 537.852 21.6525 537.266C21.0668 536.68 20.117 536.68 19.5312 537.266L12.5459 544.252V539.122V213.876V208.746L19.5312 215.732C20.117 216.317 21.0668 216.317 21.6525 215.732C22.2383 215.146 22.2383 214.196 21.6525 213.61L12.1066 204.064C11.5208 203.479 10.5711 203.479 9.98528 204.064Z" fill="black"/>
<path d="M382.151 197.069L381.087 198.126L381.087 198.126L382.151 197.069ZM177.715 177.574C177.288 178.284 177.517 179.205 178.227 179.632L189.798 186.587C190.508 187.014 191.429 186.785 191.856 186.075C192.283 185.365 192.053 184.443 191.343 184.016L181.059 177.834L187.241 167.549C187.668 166.839 187.438 165.917 186.728 165.49C186.018 165.064 185.097 165.293 184.67 166.003L177.715 177.574ZM411.398 536.602C412.892 536.738 412.892 536.737 412.892 536.735C412.893 536.733 412.893 536.729 412.893 536.725C412.894 536.716 412.895 536.703 412.897 536.685C412.9 536.65 412.905 536.599 412.911 536.53C412.923 536.392 412.941 536.187 412.965 535.917C413.013 535.376 413.082 534.574 413.171 533.525C413.347 531.429 413.599 528.347 413.9 524.407C414.502 516.526 415.3 505.207 416.085 491.452C417.655 463.944 419.173 426.68 418.966 387.672C418.758 348.673 416.825 307.884 411.481 273.342C408.808 256.071 405.277 240.323 400.665 227.123C396.061 213.943 390.338 203.188 383.216 196.012L381.087 198.126C387.758 204.847 393.295 215.124 397.833 228.112C402.364 241.08 405.86 256.635 408.516 273.8C413.828 308.131 415.758 348.752 415.966 387.688C416.173 426.615 414.657 463.812 413.09 491.281C412.306 505.015 411.51 516.314 410.909 524.178C410.609 528.11 410.357 531.184 410.181 533.273C410.093 534.318 410.024 535.117 409.977 535.654C409.953 535.923 409.935 536.126 409.923 536.262C409.917 536.33 409.912 536.381 409.909 536.415C409.908 536.432 409.906 536.445 409.906 536.453C409.905 536.457 409.905 536.46 409.905 536.463C409.905 536.465 409.904 536.465 411.398 536.602ZM383.216 196.012C369.132 181.824 349.214 173.615 327.428 169.223C305.629 164.829 281.823 164.228 259.808 165.365C237.784 166.503 217.499 169.383 202.724 171.978C195.335 173.275 189.32 174.502 185.149 175.405C183.063 175.857 181.439 176.227 180.334 176.485C179.782 176.614 179.359 176.715 179.074 176.784C178.931 176.819 178.823 176.845 178.75 176.863C178.714 176.872 178.686 176.879 178.667 176.884C178.658 176.886 178.651 176.888 178.646 176.889C178.643 176.89 178.641 176.89 178.64 176.89C178.638 176.891 178.638 176.891 179 178.346C179.363 179.802 179.363 179.802 179.364 179.802C179.365 179.801 179.366 179.801 179.368 179.801C179.372 179.8 179.379 179.798 179.387 179.796C179.404 179.792 179.43 179.785 179.465 179.777C179.535 179.76 179.64 179.734 179.779 179.7C180.057 179.633 180.472 179.534 181.017 179.407C182.107 179.152 183.715 178.785 185.784 178.337C189.921 177.441 195.897 176.222 203.243 174.933C217.937 172.352 238.095 169.491 259.962 168.361C281.838 167.231 305.371 167.837 326.835 172.164C348.313 176.494 367.583 184.522 381.087 198.126L383.216 196.012Z" fill="#FF9900"/>
<path d="M11.9394 202.939C11.3536 203.525 11.3536 204.475 11.9394 205.061L21.4853 214.607C22.0711 215.192 23.0208 215.192 23.6066 214.607C24.1924 214.021 24.1924 213.071 23.6066 212.485L15.1214 204L23.6066 195.515C24.1924 194.929 24.1924 193.979 23.6066 193.393C23.0208 192.808 22.0711 192.808 21.4853 193.393L11.9394 202.939ZM302.062 202.5L13 202.5V205.5L302.062 205.5V202.5Z" fill="#A3A3A3"/>
<path d="M11.9394 547.939C11.3536 548.525 11.3536 549.475 11.9394 550.061L21.4853 559.607C22.0711 560.192 23.0208 560.192 23.6066 559.607C24.1924 559.021 24.1924 558.071 23.6066 557.485L15.1214 549L23.6066 540.515C24.1924 539.929 24.1924 538.979 23.6066 538.393C23.0208 537.808 22.0711 537.808 21.4853 538.393L11.9394 547.939ZM302.062 547.5L13 547.5V550.5L302.062 550.5V547.5Z" fill="#A3A3A3"/>
</svg>
