<svg width="1260" height="5246" viewBox="0 0 1260 5246" fill="none" xmlns="http://www.w3.org/2000/svg">
<path d="M113.5 112.5H1256.5V5242.5H113.5V112.5Z" fill="white" stroke="#1B8EFF" stroke-width="7"/>
<path d="M113.5 444.5L113.5 3.5H4.5L4.5 444.5H113.5Z" stroke="#1B8EFF" stroke-width="7"/>
<path d="M879.5 3.5L113.5 3.5V112.5L879.5 112.5V3.5Z" stroke="#1B8EFF" stroke-width="7"/>
<rect x="-3.5" y="-3.5" width="560" height="109" transform="matrix(0 -1 -1 0 109 1291)" stroke="#1B8EFF" stroke-width="7"/>
<rect x="-3.5" y="-3.5" width="656" height="109" transform="matrix(0 -1 -1 0 109 2199)" stroke="#1B8EFF" stroke-width="7"/>
<rect x="-3.5" y="-3.5" width="560" height="109" transform="matrix(0 -1 -1 0 109 3077)" stroke="#1B8EFF" stroke-width="7"/>
<rect x="-3.5" y="-3.5" width="560" height="109" transform="matrix(0 -1 -1 0 109 3894)" stroke="#1B8EFF" stroke-width="7"/>
</svg>
