<svg width="1088" height="268" viewBox="0 0 1088 268" fill="none" xmlns="http://www.w3.org/2000/svg">
<g opacity="0.5">
<path d="M928.065 10.4487H932.138L932.71 10.5811C932.96 10.6356 932.96 10.6888 932.71 10.7407C930.971 11.0964 929.82 11.3754 929.257 11.5779C922.178 14.1048 915.01 17.0834 908.64 21.121C905.476 23.1301 902.955 24.8575 901.075 26.3033C897.96 28.7018 894.622 31.6739 891.061 35.2196C889.143 37.13 887.387 39.0392 885.793 40.947C880.439 47.3559 875.37 54.4538 871.924 62.0891C867.618 71.6154 864.303 81.4765 861.98 91.6724C861.417 94.1435 860.952 96.6964 860.586 99.3311C859.472 107.362 858.875 115.437 858.795 123.557C858.787 124.044 858.643 124.542 858.639 124.99C858.612 128.973 858.491 133.022 858.772 136.997C858.943 139.45 858.857 142.332 858.997 144.348C859.252 148.037 859.541 151.722 859.866 155.402C860.049 157.47 860.138 159.709 860.804 161.5C862.471 165.993 865.426 173.34 867.999 178.861C873.103 189.815 878.577 199.877 884.422 209.048C889.894 217.632 896.626 225.758 904.618 233.426C905.644 234.409 908.05 236.45 911.837 239.546C913.652 241.026 915.929 243.428 918.172 244.88C922.435 247.637 927.785 250.935 932.788 253.131C937.383 255.148 941.901 256.862 946.342 258.274C955.378 261.148 964.694 262.586 974.29 262.588C980.952 262.592 987.956 261.498 994.579 260.311C996.425 259.981 998.379 259.512 1000.44 258.905C1004.19 257.803 1007.88 256.826 1011.5 255.331C1013.22 254.617 1014.95 253.903 1016.67 253.189C1019.61 251.971 1022.38 250.398 1025.19 248.899C1031.5 245.531 1037.43 241.481 1043.15 237.198C1045.19 235.672 1047.19 234.019 1049.14 232.238C1052.82 228.892 1056.07 225.702 1058.89 222.668C1065.4 215.68 1071.04 207.759 1075.82 198.905C1078.29 194.313 1080.51 188.993 1082.46 182.945C1083.18 180.739 1083.49 179.075 1083.4 177.954C1083.25 176.033 1082.39 174.448 1080.83 173.2C1080 172.543 1079.1 172.124 1078.11 171.942C1077.08 171.753 1076.05 171.777 1075.03 172.016C1047.16 178.518 1019.29 185.025 991.429 191.535C988.649 192.184 986.743 192.516 985.71 192.531C979.098 192.637 974.391 186.582 969.742 182.614C966.633 179.964 964.581 178.186 963.586 177.28C959.651 173.698 956.255 169.688 953.397 165.249C952.161 163.328 950.94 161.042 949.733 158.389C946.221 150.668 944.644 144.325 942.705 135.249C941.109 127.785 940.614 120.574 941.237 113.017C941.448 110.473 941.889 107.922 942.561 105.362C944.566 97.7386 947.666 90.7029 950.893 83.0482C951.864 80.751 952.72 79.1196 953.459 78.154C956.111 74.7043 959.152 73.5362 963.781 72.4499C990.276 66.2461 1016.77 60.0593 1043.28 53.8893C1046.08 53.2377 1047.64 52.8432 1047.97 52.7056C1049.59 52.0203 1050.82 50.8847 1051.66 49.2987C1053.06 46.6485 1052.7 44.1839 1050.58 41.9049C1045.18 36.1151 1039.18 30.7537 1032.62 26.3384C1029.56 24.2852 1027.53 22.9951 1026.52 22.4682C1019.44 18.7823 1012.16 15.5441 1004.69 12.7537C1002.1 11.7881 999.653 11.2158 997.005 10.7213C996.989 10.7175 996.974 10.7083 996.964 10.6952C996.953 10.6821 996.948 10.6659 996.948 10.6492C996.948 10.6326 996.953 10.6164 996.964 10.6033C996.974 10.5902 996.989 10.581 997.005 10.5772L997.792 10.4487H1002.91C1010.57 13.2002 1018.02 16.4046 1025.26 20.0619C1029.29 22.0983 1034.13 25.217 1037.17 27.4675C1041.15 30.4059 1045.24 34.0412 1049.42 38.3734C1051.55 40.5797 1052.82 42.0943 1053.24 42.9172C1054.17 44.7809 1054.27 46.8834 1053.54 49.2248C1053.33 49.9204 1052.53 51.0379 1051.15 52.5771C1050.84 52.6654 1050.49 52.7329 1050.11 52.7796C1049.77 52.8211 1049.66 53.0547 1049.79 53.4804C1048.85 54.0463 1048.05 54.4071 1047.39 54.5628C1019.39 61.104 991.38 67.6426 963.372 74.1786C959.401 75.1053 956.843 76.324 954.561 79.3921C953.949 80.2176 953.215 81.6244 952.361 83.6127C949.476 90.3136 946.731 97.0144 944.578 103.992C943.88 106.253 943.396 108.558 943.126 110.907C942.446 116.786 942.45 122.651 943.137 128.502C943.546 132.002 944.473 135.744 945.306 139.353C945.241 139.454 945.11 139.531 944.913 139.583C944.765 139.622 944.738 139.702 944.831 139.824C944.927 139.951 945.127 140.021 945.431 140.034C946.318 143.683 947.136 147.401 948.351 150.824C949.882 155.125 951.448 158.73 953.047 161.64C955.866 166.761 959.821 171.593 964.914 176.136C966.965 177.963 969.031 179.776 971.113 181.575C972.978 183.187 975.925 186.064 978.682 188.264C982.642 191.422 985.815 191.184 990.966 189.981C1018.83 183.484 1046.69 176.988 1074.55 170.494C1075.39 170.297 1076.71 170.165 1078.52 170.101C1078.5 170.339 1078.74 170.451 1079.25 170.435C1082.9 172.05 1084.81 174.546 1084.99 177.923C1085.06 179.314 1084.65 181.346 1083.75 184.02C1081.75 189.969 1079.47 195.384 1076.89 200.264C1072.99 207.62 1068.14 214.629 1062.34 221.289C1060.87 222.976 1059.09 224.871 1057.01 226.974C1052.96 231.075 1049.54 234.259 1046.76 236.525C1042.95 239.634 1038 243.091 1031.93 246.893C1028.79 248.856 1025.36 250.604 1022.02 252.391C1019.44 253.769 1016.89 254.786 1014.22 255.845C1014.07 255.902 1014 256.002 1013.98 256.145C1013.62 256.269 1013.49 256.451 1013.59 256.69C1009.42 257.907 1005.25 259.128 1001.08 260.353C998.37 261.15 995.847 261.747 993.509 262.144C987.294 263.204 980.784 264.181 974.578 264.208C965.137 264.244 956.021 262.914 947.23 260.217C942.15 258.657 936.903 256.673 931.488 254.264C929.292 253.285 926.988 252.093 924.577 250.686C920.509 248.311 917.829 246.665 916.537 245.749C911.884 242.451 906.468 236.98 901.27 233.176C893.857 227.756 886.011 222.613 877.768 218.548C870.454 214.943 863.789 212.06 857.775 209.901C850.037 207.118 841.375 204.694 831.789 202.627C824.66 201.089 816.414 199.863 809.946 199.038C805.809 198.508 802.899 198.243 801.217 198.243C643.008 198.246 484.798 198.246 326.587 198.243C323.6 198.243 321.008 198.311 318.812 198.446C297.934 199.738 277.193 204.263 257.469 211.404C255.322 212.18 253.042 213.156 250.628 214.331C246.041 216.566 241.466 218.708 237.031 221.215C223.43 228.901 209.879 236.677 196.379 244.542C195.979 244.775 194.881 245.362 193.085 246.302C190.737 247.536 189 249.237 186.765 250.417C185.159 251.268 183.549 252.113 181.937 252.952C178.608 254.688 175.089 255.907 171.577 257.25C168.956 258.255 166.164 258.862 163.427 259.668C161.351 260.276 159.458 260.731 157.75 261.035C155.83 261.375 153.906 261.71 151.98 262.039C152.11 261.899 152.148 261.773 152.093 261.662C152.033 261.529 151.933 261.48 151.793 261.514L148.001 262.44C146.752 262.407 145.51 262.442 144.275 262.546C139.287 262.974 133.836 262.966 128.911 262.534C119.738 261.729 110.753 259.987 101.956 257.309C99.469 256.551 97.0264 255.677 94.628 254.688C87.6533 251.812 80.9732 248.357 74.5878 244.324C73.3029 243.514 71.9038 242.505 70.3905 241.298C67.6533 239.118 64.8383 237.113 62.397 234.644C60.314 232.538 57.1407 229.929 56.2413 227.246C55.3639 224.63 55.9558 222.016 58.0168 219.405L58.2543 218.817C60.0687 217.934 62.0414 217.245 64.1725 216.749C88.2425 211.14 112.314 205.531 136.386 199.921C139.712 199.145 141.927 198.433 143.033 197.784C145.172 196.527 146.755 194.687 147.783 192.263C148.691 190.124 150.665 185.131 153.705 177.284C156.48 170.117 157.638 162.688 157.178 154.997C156.9 150.361 156.007 145.492 154.499 140.389C154.606 140.194 154.837 140.08 155.192 140.046C155.212 140.048 155.231 140.041 155.246 140.029C155.261 140.016 155.271 139.998 155.272 139.978C155.274 139.958 155.267 139.939 155.255 139.924C155.242 139.909 155.224 139.9 155.204 139.898C154.732 139.789 154.427 139.645 154.289 139.466C153.02 130.951 149.967 123.779 145.462 116.654C144.242 114.728 142.843 112.898 141.265 111.164C137.897 107.465 134.486 104.646 130.951 101.554C127.326 98.3811 123.923 94.0864 118.741 93.5608C117.614 93.4466 115.967 93.6426 113.8 94.1487C88.2996 100.111 62.7981 106.073 37.2952 112.036C35.8935 112.363 34.1453 112.359 32.6424 112.721C24.4425 114.691 16.2284 116.629 8 118.534V117.989L32.9811 112.079C33.0953 112.05 33.0966 112.016 32.985 111.977C32.2349 111.713 31.3861 111.205 30.4386 110.455C28.7514 109.116 27.8234 107.526 27.6547 105.685C27.5587 104.665 27.8844 102.981 28.632 100.632C30.6307 94.3421 32.8656 88.9327 35.3367 84.4031C38.6722 78.2851 42.0778 73.2234 45.5535 69.2182C48.8202 65.4532 51.9584 61.6647 55.6028 58.2384C58.4061 55.6063 61.1394 52.8068 64.2192 50.498C67.2289 48.2436 70.2932 45.8802 73.3263 43.9957C77.6274 41.3195 82.0492 38.8562 86.5917 36.6057C88.7175 35.5545 90.9641 34.7485 93.2068 33.923C93.5443 33.6349 93.9518 33.4415 94.4294 33.3429C94.5592 33.3169 94.6397 33.2404 94.6708 33.1132C94.702 32.9834 94.6591 32.8744 94.5423 32.7861C97.5923 32.023 100.628 31.2092 103.649 30.3449C106.816 29.4338 109.331 28.8056 111.195 28.4604C119.025 27.012 127.061 26.3578 135.012 27.0003C148.92 28.1216 161.757 32.2099 173.959 39.1132C179.286 42.1268 184.569 45.2572 190.048 47.9594C195.917 50.8536 199.894 52.7848 201.981 53.753C212.915 58.8328 224.868 63.7517 237.841 68.5096C240.253 69.3947 244.935 70.8626 251.889 72.9132C257.052 74.4356 262.561 75.5609 267.915 76.8652C276.391 78.9327 285.144 80.1436 293.807 81.0936C296.232 81.361 298.821 81.4946 301.575 81.4946C459.2 81.4921 616.824 81.4921 774.449 81.4946C777.159 81.4946 779.752 81.3947 782.228 81.1948C788.728 80.6705 793.692 80.1436 797.121 79.6141C810.761 77.5063 823.666 74.5485 835.835 70.7406C838.672 69.8529 841.758 68.6913 845.094 67.2559C847.393 66.2643 849.737 65.1469 852.125 63.9035C857.935 60.8769 863.043 57.7711 867.45 54.5862C874.587 49.4272 880.965 43.9451 886.459 37.5596C887.912 35.8724 889.27 34.4461 890.531 33.2806C894.685 29.4493 897.912 26.6473 900.215 24.8744C901.546 23.8517 903.864 22.2826 907.169 20.1671C909.552 18.6382 911.805 17.3546 913.928 16.3163C918.52 14.071 923.232 12.1152 928.065 10.4487ZM156.115 139.408C156.193 139.703 156.123 139.933 156.224 140.276C158.026 146.441 158.916 152.712 158.895 159.09C158.876 165.121 157.618 171.642 155.453 177.09C153.634 181.674 151.824 186.263 150.026 190.857C149.138 193.128 148.36 194.723 147.693 195.642C145.256 198.995 142.457 200.132 138.104 201.148C113.32 206.931 88.5371 212.71 63.7559 218.486C62.1465 218.862 60.9785 219.297 60.2517 219.79C57.935 221.363 56.802 224.552 57.9428 227.13C58.8578 229.201 61.7001 231.658 63.5456 233.492C65.9908 235.925 68.837 237.969 71.5664 240.115C73.3029 241.483 74.9317 242.64 76.4528 243.588C84.092 248.346 92.4281 252.617 101.021 255.358C111.056 258.559 120.93 260.452 130.643 261.039C136.884 261.418 144.005 261.191 152.007 260.357C155.173 260.03 159.475 259.143 163.182 258.091C166.04 257.285 169.034 256.546 171.666 255.603C176.232 253.971 180.637 251.985 184.881 249.646C187.268 248.33 189.686 246.504 192.1 244.912C194.186 243.533 195.9 242.273 197.239 241.131C200.253 238.559 203.143 235.854 205.91 233.017C208.924 229.925 212.369 225.611 214.503 222.508C217.161 218.643 219.693 214.168 222.099 209.083C223.161 206.838 224.16 204.442 225.098 201.895C227.854 194.417 229.853 187.413 231.094 180.882C232.586 173.032 233.339 164.297 233.352 154.674C233.352 153.502 233.593 152.023 233.609 150.52C233.659 145.828 233.43 143.169 233.352 139.552C233.235 134.241 232.725 128.938 232.234 123.65C232.11 122.298 231.704 120.77 231.016 119.068C227.352 110.015 224.147 101.975 219.977 94.1059C215.941 86.4927 211.479 79.1338 206.591 72.0294C204.855 69.5064 202.9 67.1352 200.946 64.7406C197.41 60.4149 193.186 56.5174 189.214 52.5343C187.108 50.4279 184.815 48.6797 182.506 46.8341C180.824 45.4921 179.026 44.228 177.113 43.0418C174.59 41.4805 172.005 39.7712 169.486 38.4824C150.906 28.9613 131.343 26.1943 110.798 30.1813C108.415 30.6434 105.896 31.2624 103.241 32.0386C97.8726 33.6012 93.1147 35.3234 88.9667 37.2053C84.4216 39.2663 79.4431 42.0074 74.031 45.4285C71.3717 47.1067 68.8136 49.0885 66.2478 51.0197C64.4671 52.3565 62.7124 53.8425 60.9837 55.4778C58.1219 58.18 55.1277 60.7614 52.5424 63.7166C49.7585 66.8977 46.5853 70.4408 44.3698 73.3688C37.7715 82.0852 32.8526 91.9372 29.6132 102.925C28.9435 105.199 29.0564 106.791 30.7306 108.567C33.6469 111.662 36.3218 110.619 40.6359 109.61C64.8902 103.946 89.1419 98.2772 113.391 92.603C115.644 92.0761 117.372 91.858 118.573 91.9489C124.593 92.4122 128.229 96.9871 132.423 100.62C137.609 105.121 142.912 109.626 146.642 115.482C150.357 121.314 153.417 127.781 154.935 134.556C155.299 136.181 155.692 137.798 156.115 139.408ZM235.034 139.524C235.057 139.626 235.039 139.793 234.979 140.027C235.28 145.312 235.345 149.393 235.174 152.272C235.014 154.99 235.014 157.789 234.87 159.927C234.477 165.783 234.275 171.105 233.293 177.428C232.889 180.053 232.393 182.601 231.806 185.075C229.919 193.028 227.608 200.267 224.872 206.79C222.902 211.488 220.238 216.501 216.882 221.83C215.243 224.439 213.273 226.888 211.342 229.353C209.997 231.069 208.491 232.758 206.825 234.422C205.159 236.086 203.5 237.749 201.849 239.41C201.843 239.416 201.84 239.424 201.839 239.432C201.839 239.441 201.842 239.449 201.847 239.456C201.852 239.462 201.86 239.467 201.868 239.468C201.876 239.47 201.885 239.469 201.892 239.464C213.077 232.993 224.272 226.591 235.478 220.257C237.63 219.04 239.836 217.875 242.097 216.761C246.664 214.511 251.301 212.069 255.946 210.344C261.501 208.278 267.125 206.42 272.817 204.769C276.574 203.679 280.748 202.74 284.747 201.767C290.478 200.369 297.424 199.112 302.011 198.454C305.635 197.929 310.783 197.405 317.457 196.881C319.938 196.686 322.53 196.588 325.232 196.588C482.595 196.596 639.958 196.595 797.323 196.585C800.059 196.585 802.648 196.705 805.091 196.947C813.805 197.803 821.37 198.875 827.787 200.163C837.556 202.125 848.898 204.971 858.717 208.662C860.217 209.226 862.633 210.177 865.963 211.516C872.904 214.304 878.683 217 883.301 219.603C888.121 222.318 892.711 225.179 897.069 228.185C897.59 228.543 897.616 228.509 897.147 228.084C896.537 227.533 895.91 226.884 895.266 226.137C889.827 219.825 884.936 213.144 880.657 206.003C875.668 197.684 871.108 189.135 866.975 180.356C864.176 174.411 861.793 168.162 859.426 161.967C858.987 160.814 858.677 159.366 858.495 157.622C857.408 147.01 856.904 136.804 856.984 127.003C857.004 124.908 857.164 122.509 857.226 120.255C857.432 113.036 858.094 105.837 859.06 98.6847C859.421 96.0293 859.89 93.479 860.469 91.0339C862.896 80.7782 866.265 70.847 870.577 61.2403C872.609 56.7121 875.164 52.5849 877.901 48.4889C877.904 48.4826 877.905 48.4754 877.904 48.4684C877.902 48.4615 877.898 48.4552 877.893 48.4507C877.888 48.4461 877.881 48.4436 877.874 48.4435C877.867 48.4433 877.86 48.4456 877.854 48.4499C877.332 48.9366 876.857 49.4623 876.312 49.8828C872.57 52.7523 868.747 55.8088 864.939 58.2539C858.573 62.3383 851.861 66.1384 844.856 69.0313C841.253 70.5213 838.127 71.6803 835.476 72.5083C824.645 75.9009 813.075 78.6225 800.769 80.6731C793.885 81.8217 786.873 82.4447 779.896 83.0015C778.899 83.0819 777.343 83.1222 775.227 83.1222C616.92 83.1222 458.614 83.1299 300.31 83.1455C298.622 83.1455 297.454 83.1105 296.805 83.0404C289.945 82.3058 283.112 81.383 276.306 80.2721C273.977 79.8931 271.437 79.3714 268.686 78.7069C262.885 77.3091 256.927 76.0826 251.309 74.3928C245.391 72.6134 239.562 70.8535 233.702 68.5953C228.36 66.5356 222.925 64.5732 217.715 62.3188C210.89 59.3675 203.994 56.5135 197.301 53.2507C193.945 51.6102 190.59 49.9801 187.236 48.3604C187.229 48.358 187.222 48.358 187.215 48.3603C187.207 48.3626 187.201 48.3672 187.197 48.3733C187.193 48.3794 187.19 48.3867 187.19 48.3942C187.19 48.4017 187.193 48.4089 187.198 48.4149C187.813 48.9795 188.506 49.4856 189.07 50.0502C192.144 53.1209 195.218 56.1904 198.294 59.2585C200.455 61.4116 202.246 63.7166 204.138 66.0683C205.626 67.9191 206.965 69.7153 208.157 71.457C214.188 80.2682 219.837 89.6283 224.299 99.3389C227.292 105.857 230.103 112.454 232.733 119.13C233.216 120.36 233.487 121.218 233.547 121.704C234.279 127.635 234.774 133.575 235.034 139.524Z" fill="#010101" stroke="#1B8EFF" stroke-width="6"/>
<path d="M308.665 136.304C309.075 133.763 309.796 131.314 310.826 128.957C311.864 126.58 313.243 124.468 314.961 122.622C318.704 118.596 323.3 116.036 328.748 114.94C330.474 114.593 333.058 114.419 336.5 114.419C481.671 114.413 626.841 114.413 772.011 114.419C775.627 114.419 778.215 114.546 779.775 114.8C788.31 116.19 795.373 121.559 798.939 129.428C801.281 134.596 801.802 139.962 800.504 145.524C798.266 155.138 790.148 163.053 780.46 164.856C778.859 165.152 776.272 165.3 772.701 165.3C628.151 165.308 483.601 165.309 339.051 165.304C334.843 165.301 332.249 165.25 331.267 165.152C322.351 164.252 314.731 159 310.947 150.862C309.888 148.581 309.14 146.195 308.704 143.706C308.278 141.264 308.265 138.796 308.665 136.304ZM310.005 139.524L309.97 139.918C310.325 148.683 314.038 155.409 321.109 160.094C325.668 163.112 330.38 163.653 336.403 163.653C482.905 163.658 629.407 163.639 775.909 163.594C785.841 163.591 793.554 157.742 797.74 149.001C798.908 146.564 799.526 143.491 799.593 139.781C799.49 139.826 799.487 139.754 799.586 139.567C799.325 128.467 791.573 118.818 780.663 116.568C779.079 116.241 776.498 116.077 772.919 116.077C626.154 116.072 479.392 116.071 332.63 116.073C331.169 116.073 329.414 116.343 327.366 116.883C325.585 117.353 323.95 118.003 322.46 118.834C314.631 123.197 310.48 130.094 310.005 139.524Z" fill="#010101" stroke="#1B8EFF" stroke-width="6"/>
<path d="M928 10.9494C949 2.9499 989.5 7.44783 1005.5 12.4489" stroke="#1B8EFF" stroke-width="7"/>
<path d="M0 114.449L24.5 107.449L33 115.949L0 124.449V114.449Z" fill="white"/>
</g>
<path d="M368.383 131H383.383L382.844 133.812H370.844L366.719 155H363.719L368.383 131ZM402.074 143H397.48C396.902 143 396.449 143.016 396.121 143.047C395.793 143.078 395.363 143.195 394.832 143.398C394.301 143.586 393.816 143.875 393.379 144.266C392.754 144.828 392.238 145.539 391.832 146.398C391.441 147.258 391.246 148.141 391.246 149.047C391.246 150.094 391.543 150.945 392.137 151.602C392.73 152.242 393.574 152.562 394.668 152.562C395.418 152.562 396.105 152.453 396.73 152.234C397.371 152.016 397.91 151.742 398.348 151.414C398.801 151.07 399.215 150.641 399.59 150.125C399.965 149.594 400.262 149.102 400.48 148.648C400.715 148.18 400.934 147.625 401.137 146.984C401.34 146.344 401.488 145.82 401.582 145.414C401.676 145.008 401.777 144.523 401.887 143.961L402.074 143ZM400.715 130.625C402.684 130.625 404.121 131.039 405.027 131.867C405.965 132.742 406.434 133.828 406.434 135.125C406.434 135.594 406.34 136.367 406.152 137.445L402.73 155H399.73L400.293 152.117H400.059C398.059 154.289 395.895 155.375 393.566 155.375C391.973 155.375 390.676 154.852 389.676 153.805C388.676 152.742 388.176 151.359 388.176 149.656C388.176 148.375 388.465 147.086 389.043 145.789C389.637 144.477 390.449 143.383 391.48 142.508C392.074 142.023 392.684 141.625 393.309 141.312C393.934 141 394.559 140.789 395.184 140.68C395.824 140.555 396.324 140.484 396.684 140.469C397.043 140.437 397.488 140.422 398.02 140.422H402.566L403.129 137.562C403.301 136.594 403.387 135.961 403.387 135.664C403.387 134.914 403.137 134.359 402.637 134C402.152 133.625 401.332 133.437 400.176 133.437C398.301 133.437 396.02 133.602 393.332 133.93L393.871 131.07C396.512 130.773 398.793 130.625 400.715 130.625ZM427.586 137.539C427.586 136.211 427.234 135.195 426.531 134.492C425.844 133.789 424.813 133.437 423.438 133.437C422.312 133.437 421.305 133.687 420.414 134.188C419.523 134.687 418.82 135.383 418.305 136.273C417.836 137.008 417.375 138.312 416.922 140.187H427.328C427.5 139.047 427.586 138.164 427.586 137.539ZM415.656 147.945C415.656 151.023 417.164 152.562 420.18 152.562C422.008 152.562 424.383 152.398 427.305 152.07L426.766 154.883C423.875 155.211 421.5 155.375 419.641 155.375C417.359 155.375 415.617 154.758 414.414 153.523C413.211 152.273 412.609 150.578 412.609 148.437C412.609 147.391 412.852 145.578 413.336 143C413.57 141.766 413.766 140.805 413.922 140.117C414.078 139.414 414.313 138.609 414.625 137.703C414.938 136.797 415.289 136.008 415.68 135.336C416.477 133.945 417.602 132.812 419.055 131.938C420.508 131.062 422.148 130.625 423.977 130.625C426.039 130.625 427.656 131.195 428.828 132.336C430.016 133.477 430.609 135.086 430.609 137.164C430.609 138.414 430.352 140.359 429.836 143H416.336C415.883 145.391 415.656 147.039 415.656 147.945ZM441.777 140.187C441.777 141.234 442.113 142.062 442.785 142.672C443.457 143.266 444.355 143.562 445.48 143.562C446.949 143.562 448.191 143.078 449.207 142.109C449.613 141.719 449.949 141.258 450.215 140.727C450.48 140.195 450.66 139.727 450.754 139.32C450.863 138.898 451.004 138.258 451.176 137.398L452.418 131H455.418L450.754 155H447.754L450.004 143.375H449.77C449.004 144.297 448.145 145.031 447.191 145.578C446.254 146.109 445.348 146.375 444.473 146.375C442.738 146.375 441.348 145.867 440.301 144.852C439.254 143.82 438.73 142.461 438.73 140.773C438.73 140.102 438.879 138.977 439.176 137.398L440.418 131H443.418L442.176 137.398C441.91 138.758 441.777 139.687 441.777 140.187ZM464.43 131H467.43L465.648 140.187H474.648L476.43 131H479.43L474.766 155H471.766L474.109 143H465.109L462.766 155H459.766L464.43 131ZM489.707 140.094H491.043C492.277 140.094 493.23 140.188 493.902 140.375C495.121 140.703 496.074 141.344 496.762 142.297C497.465 143.25 497.816 144.422 497.816 145.812C497.816 148.078 497.16 150.016 495.848 151.625C494.551 153.219 492.973 154.25 491.113 154.719C490.379 154.906 489.387 155 488.137 155H483.777L488.441 131H491.465L489.707 140.094ZM489.121 142.906L487.316 152.188H488.676C489.566 152.188 490.285 152.125 490.832 152C491.941 151.734 492.871 151.086 493.621 150.055C494.387 149.023 494.77 147.789 494.77 146.352C494.77 145.508 494.574 144.805 494.184 144.242C493.809 143.664 493.27 143.281 492.566 143.094C492.066 142.969 491.371 142.906 490.48 142.906H489.121ZM506.441 131L501.777 155H498.777L503.441 131H506.441ZM519.789 155L523.305 136.859H523.07L510.789 155H507.789L512.453 131H515.453L511.938 149.141H512.172L524.477 131H527.453L522.789 155H519.789ZM526.68 122H529.68C529.305 123.922 528.242 125.469 526.492 126.641C524.742 127.797 522.734 128.375 520.469 128.375C518.453 128.375 516.805 127.906 515.523 126.969C514.258 126.031 513.625 124.766 513.625 123.172C513.625 122.828 513.664 122.437 513.742 122H516.742C516.695 122.234 516.672 122.453 516.672 122.656C516.672 123.531 517.031 124.234 517.75 124.766C518.484 125.297 519.57 125.562 521.008 125.562C522.617 125.562 523.914 125.234 524.898 124.578C525.883 123.922 526.477 123.062 526.68 122ZM558.813 155H555.813L560.477 131H563.477L561.578 140.773L572.852 131H576.859L566.617 139.883L573.297 155H569.641L564.297 141.875L560.805 144.805L558.813 155ZM599.488 131L594.824 155H591.824L595.949 133.812H589.949L587.301 147.406C587.035 148.766 586.629 149.93 586.082 150.898C585.535 151.867 584.777 152.719 583.809 153.453C582.871 154.172 581.855 154.672 580.762 154.953C579.684 155.234 578.348 155.375 576.754 155.375L577.293 152.562C578.434 152.562 579.379 152.484 580.129 152.328C580.879 152.172 581.551 151.867 582.145 151.414C582.77 150.93 583.23 150.391 583.527 149.797C583.84 149.188 584.098 148.391 584.301 147.406L587.488 131H599.488ZM619.516 136.812C619.516 135.859 619.305 135.062 618.883 134.422C618.477 133.766 617.859 133.437 617.031 133.437C615.813 133.437 614.773 134.094 613.914 135.406C613.32 136.297 612.805 137.828 612.367 140L611.219 146C610.953 147.328 610.82 148.391 610.82 149.187C610.82 150.328 611.055 151.18 611.523 151.742C611.992 152.289 612.586 152.562 613.305 152.562C613.93 152.562 614.516 152.375 615.063 152C615.625 151.625 616.086 151.156 616.445 150.594C617.023 149.734 617.531 148.203 617.969 146L619.117 140.023C619.383 138.695 619.516 137.625 619.516 136.812ZM617.57 130.625C619.023 130.625 620.227 131.133 621.18 132.148C622.133 133.164 622.609 134.547 622.609 136.297C622.609 137.172 622.445 138.414 622.117 140.023L620.969 146C620.813 146.812 620.68 147.445 620.57 147.898C620.461 148.352 620.258 148.953 619.961 149.703C619.68 150.453 619.344 151.125 618.953 151.719C618.281 152.734 617.391 153.602 616.281 154.32C615.188 155.023 614.016 155.375 612.766 155.375C611.344 155.375 610.148 154.883 609.18 153.898C608.227 152.898 607.75 151.5 607.75 149.703C607.75 148.766 607.906 147.531 608.219 146L608.5 144.5H605.875L603.836 155H600.836L605.5 131H608.5L606.414 141.687H609.039L609.367 140C609.523 139.187 609.656 138.555 609.766 138.102C609.875 137.648 610.07 137.047 610.352 136.297C610.648 135.547 610.992 134.875 611.383 134.281C612.055 133.266 612.938 132.406 614.031 131.703C615.141 130.984 616.32 130.625 617.57 130.625ZM633.871 140.187C633.871 141.234 634.207 142.062 634.879 142.672C635.551 143.266 636.449 143.562 637.574 143.562C639.043 143.562 640.285 143.078 641.301 142.109C641.707 141.719 642.043 141.258 642.309 140.727C642.574 140.195 642.754 139.727 642.848 139.32C642.957 138.898 643.098 138.258 643.27 137.398L644.512 131H647.512L642.848 155H639.848L642.098 143.375H641.863C641.098 144.297 640.238 145.031 639.285 145.578C638.348 146.109 637.441 146.375 636.566 146.375C634.832 146.375 633.441 145.867 632.395 144.852C631.348 143.82 630.824 142.461 630.824 140.773C630.824 140.102 630.973 138.977 631.27 137.398L632.512 131H635.512L634.27 137.398C634.004 138.758 633.871 139.687 633.871 140.187ZM674.124 155L679.56 129.296H683.16L689.244 150.428C689.364 149.756 689.496 149.024 689.64 148.232C689.784 147.416 689.94 146.6 690.108 145.784C690.276 144.944 690.432 144.164 690.576 143.444L693.6 129.296H696.48L691.044 155H687.552L681.36 133.508C681.288 134.036 681.204 134.612 681.108 135.236C681.012 135.836 680.904 136.472 680.784 137.144C680.664 137.792 680.532 138.44 680.388 139.088C680.268 139.736 680.148 140.372 680.028 140.996L677.04 155H674.124ZM694.644 155L695.184 152.444H703.644L703.068 155H694.644ZM700.152 150.176C698.76 150.176 697.668 149.756 696.876 148.916C696.108 148.076 695.724 146.912 695.724 145.424C695.724 144.488 695.856 143.576 696.12 142.688C696.384 141.8 696.768 141.008 697.272 140.312C697.776 139.592 698.4 139.028 699.144 138.62C699.912 138.188 700.788 137.972 701.772 137.972C703.14 137.972 704.22 138.416 705.012 139.304C705.828 140.168 706.236 141.332 706.236 142.796C706.236 143.468 706.14 144.224 705.948 145.064C705.756 145.904 705.432 146.72 704.976 147.512C704.52 148.28 703.896 148.916 703.104 149.42C702.336 149.924 701.352 150.176 700.152 150.176ZM700.332 148.088C700.932 148.088 701.448 147.944 701.88 147.656C702.312 147.344 702.672 146.936 702.96 146.432C703.248 145.928 703.452 145.376 703.572 144.776C703.716 144.152 703.788 143.528 703.788 142.904C703.788 141.992 703.608 141.308 703.248 140.852C702.888 140.372 702.336 140.132 701.592 140.132C701.016 140.132 700.512 140.288 700.08 140.6C699.672 140.888 699.324 141.284 699.036 141.788C698.748 142.292 698.532 142.856 698.388 143.48C698.244 144.08 698.172 144.692 698.172 145.316C698.172 146.204 698.352 146.888 698.712 147.368C699.072 147.848 699.612 148.088 700.332 148.088ZM726.074 122H728.605L722.184 155H719.184L724.855 125.797H724.621L716.324 131.047L715.27 128.891L726.074 122ZM739.352 124.812L739.914 122H756.32L755.898 124.109L739.727 155H736.703L752.547 125.047L752.594 124.812H739.352Z" fill="black"/>
</svg>
