<svg width="706" height="701" viewBox="0 0 706 701" fill="none" xmlns="http://www.w3.org/2000/svg">
<circle cx="353.323" cy="350.94" r="265.425" transform="rotate(19.7685 353.323 350.94)" fill="white"/>
<circle cx="353.323" cy="350.94" r="261.425" transform="rotate(19.7685 353.323 350.94)" stroke="#1B8EFF" stroke-opacity="0.5" stroke-width="8"/>
<circle cx="352.904" cy="350.051" r="198.027" transform="rotate(19.7685 352.904 350.051)" fill="white"/>
<circle cx="352.904" cy="350.051" r="194.027" transform="rotate(19.7685 352.904 350.051)" stroke="#1B8EFF" stroke-opacity="0.5" stroke-width="8"/>
<circle cx="353.323" cy="350.94" r="157.032" transform="rotate(19.7685 353.323 350.94)" fill="white"/>
<circle cx="353.323" cy="350.94" r="153.032" transform="rotate(19.7685 353.323 350.94)" stroke="#1B8EFF" stroke-opacity="0.5" stroke-width="8"/>
<rect x="415.328" y="5.34957" width="117.07" height="87.8867" transform="rotate(19.7685 415.328 5.34957)" stroke="#1B8EFF" stroke-opacity="0.5" stroke-width="8"/>
<rect x="151.131" y="59.1901" width="117.07" height="87.8867" transform="rotate(-25.2315 151.131 59.1901)" stroke="#1B8EFF" stroke-opacity="0.5" stroke-width="8"/>
<rect x="644.327" y="148.48" width="117.07" height="87.8867" transform="rotate(64.7685 644.327 148.48)" stroke="#1B8EFF" stroke-opacity="0.5" stroke-width="8"/>
<rect x="92.7462" y="409.491" width="117.07" height="87.8867" transform="rotate(64.7685 92.7462 409.491)" stroke="#1B8EFF" stroke-opacity="0.5" stroke-width="8"/>
<rect x="411.673" y="612.079" width="117.07" height="87.8867" transform="rotate(-25.2315 411.673 612.079)" stroke="#1B8EFF" stroke-opacity="0.5" stroke-width="8"/>
<rect x="5.11715" y="287.995" width="117.07" height="87.8867" transform="rotate(-70.2315 5.11715 287.995)" stroke="#1B8EFF" stroke-opacity="0.5" stroke-width="8"/>
<rect x="577.918" y="493.86" width="117.07" height="87.8867" transform="rotate(-70.2315 577.918 493.86)" stroke="#1B8EFF" stroke-opacity="0.5" stroke-width="8"/>
<rect x="211.343" y="572.92" width="117.07" height="87.8867" transform="rotate(19.7685 211.343 572.92)" stroke="#1B8EFF" stroke-opacity="0.5" stroke-width="8"/>
<rect x="395.648" y="81.1506" width="102.835" height="27.7932" transform="rotate(19.7685 395.648 81.1506)" fill="white"/>
<rect x="80.9182" y="307.675" width="102.835" height="27.7932" transform="rotate(-70.2315 80.9182 307.675)" fill="white"/>
<rect x="563.484" y="481.109" width="102.835" height="27.7932" transform="rotate(-70.2315 563.484 481.109)" fill="white"/>
<rect x="579.308" y="187.029" width="102.835" height="27.7932" transform="rotate(64.7685 579.308 187.029)" fill="white"/>
<rect x="109.505" y="409.504" width="102.835" height="27.7932" transform="rotate(64.7685 109.505 409.504)" fill="white"/>
<rect x="190.5" y="126.037" width="102.835" height="27.7932" transform="rotate(-25.2315 190.5 126.037)" fill="white"/>
<rect x="411.667" y="595.37" width="102.835" height="27.7932" transform="rotate(-25.2315 411.667 595.37)" fill="white"/>
<rect x="224.564" y="557.177" width="102.835" height="27.7932" transform="rotate(19.7685 224.564 557.177)" fill="white"/>
</svg>
