<svg width="1412" height="679" viewBox="0 0 1412 679" fill="none" xmlns="http://www.w3.org/2000/svg">
<path d="M288.94 678.078C289.526 678.664 290.476 678.664 291.062 678.078L300.608 668.532C301.193 667.947 301.193 666.997 300.608 666.411C300.022 665.825 299.072 665.825 298.486 666.411L290.001 674.896L281.516 666.411C280.93 665.825 279.98 665.825 279.394 666.411C278.809 666.997 278.809 667.947 279.394 668.532L288.94 678.078ZM288.501 422V677.018H291.501V422H288.501Z" fill="black"/>
<path d="M759.936 678.065C760.522 678.65 761.472 678.65 762.058 678.065L771.604 668.519C772.189 667.933 772.189 666.983 771.604 666.397C771.018 665.812 770.068 665.812 769.482 666.397L760.997 674.883L752.512 666.397C751.926 665.812 750.976 665.812 750.39 666.397C749.805 666.983 749.805 667.933 750.39 668.519L759.936 678.065ZM759.497 421.996V677.004H762.497V421.996H759.497Z" fill="black"/>
<line x1="290.001" y1="675.5" x2="761.002" y2="675.5" stroke="#A3A3A3" stroke-width="3"/>
<line x1="1.50104" y1="422" x2="1.50104" y2="42" stroke="#A3A3A3" stroke-width="3"/>
<path d="M513.501 661H508.168L511.293 645H487.293L488.084 640.833L516.168 601.167L520.251 603.5L494.751 639.583L494.668 640H512.251L514.376 629H519.709L517.584 640H522.918L521.959 645H516.626L513.501 661ZM557.772 602.333H562.272L550.855 661H545.522L555.605 609.083H555.189L540.439 618.417L538.564 614.583L557.772 602.333Z" fill="black"/>
<path d="M1.93934 40.6893C1.35355 41.2751 1.35355 42.2249 1.93934 42.8107L11.4853 52.3566C12.0711 52.9424 13.0208 52.9424 13.6066 52.3566C14.1924 51.7708 14.1924 50.8211 13.6066 50.2353L5.12132 41.75L13.6066 33.2647C14.1924 32.6789 14.1924 31.7292 13.6066 31.1434C13.0208 30.5576 12.0711 30.5576 11.4853 31.1434L1.93934 40.6893ZM290.001 40.25L3 40.25V43.25L290.001 43.25V40.25Z" fill="black"/>
<path d="M1.94038 420.939C1.35459 421.525 1.35459 422.475 1.94038 423.061L11.4863 432.607C12.0721 433.192 13.0219 433.192 13.6076 432.607C14.1934 432.021 14.1934 431.071 13.6076 430.485L5.12236 422L13.6076 413.515C14.1934 412.929 14.1934 411.979 13.6076 411.393C13.0219 410.808 12.0721 410.808 11.4863 411.393L1.94038 420.939ZM290.001 420.5L3.00104 420.5V423.5L290.001 423.5V420.5Z" fill="black"/>
<path d="M708.94 504.061C709.526 504.646 710.476 504.646 711.062 504.061L720.608 494.515C721.193 493.929 721.193 492.979 720.608 492.393C720.022 491.808 719.072 491.808 718.486 492.393L710.001 500.879L701.516 492.393C700.93 491.808 699.98 491.808 699.394 492.393C698.809 492.979 698.809 493.929 699.394 494.515L708.94 504.061ZM708.501 364V503H711.501V364H708.501Z" fill="black"/>
<path d="M812.94 504.061C813.526 504.646 814.476 504.646 815.062 504.061L824.608 494.515C825.193 493.929 825.193 492.979 824.608 492.393C824.022 491.808 823.072 491.808 822.486 492.393L814.001 500.879L805.516 492.393C804.93 491.808 803.98 491.808 803.394 492.393C802.809 492.979 802.809 493.929 803.394 494.515L812.94 504.061ZM812.501 364V503H815.501V364H812.501Z" fill="black"/>
<line x1="710.001" y1="503.5" x2="814.001" y2="503.5" stroke="#A3A3A3" stroke-width="3"/>
<path fill-rule="evenodd" clip-rule="evenodd" d="M612.986 49.4393L603.44 58.9853C602.855 59.5711 602.855 60.5208 603.44 61.1066C604.026 61.6924 604.976 61.6924 605.562 61.1066L612.547 54.1213V59.8141V405.993V411.686L605.562 404.7C604.976 404.114 604.026 404.114 603.44 404.7C602.855 405.286 602.855 406.236 603.44 406.822L612.986 416.368C613.572 416.953 614.522 416.953 615.108 416.368L624.654 406.822C625.239 406.236 625.239 405.286 624.654 404.7C624.068 404.114 623.118 404.114 622.532 404.7L615.547 411.686V405.993V59.8141V54.1213L622.532 61.1066C623.118 61.6924 624.068 61.6924 624.654 61.1066C625.239 60.5208 625.239 59.5711 624.654 58.9853L615.108 49.4393C614.522 48.8536 613.572 48.8536 612.986 49.4393Z" fill="black"/>
<path d="M305.415 417.898L305.712 440.824C305.723 441.259 305.561 441.684 305.261 442.006C304.961 442.328 304.549 442.521 304.114 442.542C303.68 442.563 303.259 442.411 302.944 442.118C302.629 441.826 302.446 441.417 302.435 440.982L300.587 417.459C300.522 416.407 299.962 415.875 298.907 415.863C195.441 415.817 121.235 330.956 114.653 230.996C114.557 229.507 113.762 228.76 112.27 228.753L99.5008 228.726C99.061 228.737 98.635 228.573 98.3164 228.27C97.9977 227.967 97.8126 227.55 97.8018 227.11C97.7909 226.671 97.9553 226.245 98.2586 225.927C98.562 225.609 98.9795 225.424 99.4193 225.413L112.408 224.474C113.002 224.437 113.562 224.177 113.977 223.744C114.393 223.311 114.634 222.736 114.654 222.132C118.692 117.064 190.614 40.7503 294.75 32.9251C296.189 32.8293 297.105 32.0724 297.498 30.6542L298.898 25.549C298.969 25.3258 299.111 25.1295 299.302 24.99C299.492 24.8506 299.721 24.7759 299.953 24.7773C300.186 24.7786 300.408 24.856 300.587 24.9976C300.766 25.1392 300.891 25.3371 300.943 25.5611L301.923 29.7104C302.223 31.0425 303.067 31.6996 304.456 31.6816L766.785 29.5384C767.968 29.523 768.539 28.9247 768.498 27.7434L767.725 9.79468C767.684 8.63906 768.23 8.13097 769.364 8.27042C769.776 8.31646 770.125 8.46607 770.411 8.71928C770.62 8.92211 770.74 9.24171 770.771 9.67807C771.009 16.098 771.186 21.8507 771.303 26.9362C771.318 28.0808 771.788 29.1725 772.608 29.9713C773.429 30.7702 774.534 31.2106 775.679 31.1957C865.465 29.376 953.304 32.1289 1041.14 31.6062C1061.97 31.4901 1082.28 23.7118 1102.42 18.402C1133.23 10.2434 1163.89 8.35556 1194.4 12.7386C1283.37 25.5353 1351.26 93.1754 1375.74 178.682C1379.86 193.003 1380.32 209.954 1382.83 225.684C1383.06 227.094 1383.89 227.777 1385.33 227.732L1405.46 227.009C1406.01 226.979 1406.54 227.149 1406.97 227.487C1407.4 227.825 1407.69 228.308 1407.79 228.849C1407.89 229.389 1407.8 229.951 1407.52 230.432C1407.24 230.913 1406.81 231.281 1406.29 231.468C1399.96 233.683 1393.56 233.766 1387.08 231.718C1386.45 231.513 1385.78 231.462 1385.12 231.569C1384.47 231.675 1383.85 231.936 1383.31 232.33C1382.77 232.724 1382.34 233.24 1382.04 233.836C1381.74 234.431 1381.58 235.09 1381.58 235.758C1381.73 281.488 1368.96 323.198 1343.27 360.887C1340.37 365.164 1336.2 366.914 1330.76 366.137C1329.55 365.947 1329.25 365.321 1329.85 364.26C1333.55 357.635 1337.35 351.15 1341.25 344.805C1362.03 310.956 1372.62 273.989 1373.03 233.904C1373.03 233.594 1372.98 233.285 1372.86 232.997C1372.75 232.709 1372.57 232.448 1372.35 232.227C1372.14 232.007 1371.88 231.833 1371.59 231.716C1371.3 231.599 1370.99 231.541 1370.68 231.545L1333.58 232.334C1332.75 232.355 1331.96 232.696 1331.38 233.286C1330.8 233.876 1330.47 234.668 1330.46 235.497C1330.17 254.885 1326.57 274.817 1319.29 293.217C1292.64 360.414 1241.72 397.441 1166.53 404.3C1164.96 404.449 1164.19 405.32 1164.21 406.912L1164.84 446.598C1164.86 448.14 1165.64 448.862 1167.18 448.765C1223.54 445.464 1271.59 424.159 1311.33 384.848C1315.37 380.865 1318.88 376.336 1321.88 371.262C1322.14 370.808 1322.52 370.436 1322.98 370.189C1323.44 369.942 1323.96 369.828 1324.49 369.861C1325.01 369.895 1325.52 370.073 1325.95 370.377C1326.38 370.681 1326.73 371.098 1326.94 371.582C1329.01 376.372 1326.91 381.371 1323.41 385.347C1282.08 431.859 1228.38 452.942 1167.22 457.705C1166.09 457.797 1165.52 458.421 1165.51 459.577L1165.46 479.348C1165.47 480.063 1165.19 480.753 1164.69 481.265C1164.19 481.777 1163.51 482.071 1162.79 482.08C1162.08 482.089 1161.39 481.814 1160.87 481.315C1160.36 480.815 1160.07 480.133 1160.06 479.418L1159.49 459.231C1159.47 458.691 1159.26 458.177 1158.89 457.789C1158.52 457.402 1158.02 457.169 1157.49 457.137C1127.1 454.757 1101.16 450.392 1072.14 437.511C1049.17 427.288 1024.25 412.774 998.632 412.683C925.639 412.396 852.664 412.572 779.709 413.21C779.169 413.214 778.65 413.419 778.249 413.787C777.849 414.154 777.595 414.659 777.536 415.204L775.743 431.644C775.673 431.978 775.486 432.276 775.215 432.484C774.944 432.692 774.608 432.796 774.267 432.777C773.925 432.758 773.602 432.618 773.356 432.381C773.11 432.145 772.957 431.828 772.925 431.488L772.769 416.537C772.761 415.88 772.494 415.252 772.026 414.789C771.558 414.326 770.927 414.066 770.268 414.065L307.167 416.141C305.984 416.156 305.4 416.742 305.415 417.898ZM1157.14 403.304C1080.58 401.099 1018.32 350.882 997.348 278.047C994.037 266.606 993.723 251.349 990.233 238.098C989.909 236.921 989.143 236.34 987.935 236.355L952.1 236.705C951.628 236.711 951.161 236.811 950.728 237C950.295 237.188 949.903 237.461 949.577 237.803C949.251 238.145 948.996 238.548 948.828 238.989C948.66 239.43 948.582 239.901 948.599 240.373C949.955 273.549 958.261 304.221 973.518 332.387C1012.73 404.792 1073.99 443.473 1157.3 448.43C1159.21 448.534 1160.15 447.648 1160.12 445.773L1159.8 406.006C1159.8 405.304 1159.53 404.628 1159.03 404.124C1158.53 403.619 1157.86 403.325 1157.14 403.304ZM923.649 235.185C923.817 234.284 924.374 233.609 925.32 233.16C927.813 232.048 933.429 233.748 936.623 233.167C937.957 232.919 938.654 232.1 938.713 230.712C941.377 164.444 966.65 109.263 1014.53 65.1712C1021.32 58.9171 1033.15 51.7497 1041.21 43.2822C1042.58 41.8257 1042.27 41.0848 1040.26 41.0594L787.787 39.6327C787.317 39.6217 786.859 39.7788 786.495 40.0759C786.131 40.3729 785.886 40.7901 785.804 41.2521C785.721 41.7141 785.807 42.1903 786.045 42.5947C786.283 42.999 786.659 43.3049 787.103 43.4568C821.793 55.9942 824.284 78.5066 824.673 114.458C825.535 190.803 827.052 267.14 829.226 343.469C830.007 371.014 824.57 386.075 803.596 401.917C803.262 402.157 803.013 402.497 802.886 402.888C802.759 403.279 802.761 403.701 802.891 404.091C803.021 404.481 803.272 404.82 803.609 405.057C803.945 405.294 804.349 405.417 804.76 405.409C868.814 404.552 933.464 403.996 998.709 403.741C1004.7 403.714 1009.53 404.153 1013.19 405.056C1018.3 406.351 1018.93 405.2 1015.08 401.602C968.373 358.068 943.02 304.02 939.019 239.456C938.949 238.019 938.182 237.348 936.717 237.444L926.232 238.081C924.125 238.211 923.264 237.246 923.649 235.185ZM591.965 346.007C593.506 347.785 594.022 349.924 593.515 352.423C590.324 368.136 586.761 384.934 582.826 402.815C582.317 405.16 583.258 406.329 585.649 406.324L748.4 405.562C748.743 405.56 749.077 405.449 749.354 405.246C749.63 405.042 749.835 404.756 749.938 404.429C750.041 404.102 750.037 403.75 749.927 403.425C749.817 403.1 749.607 402.819 749.326 402.621C726.945 387.265 722.14 367.827 721.853 339.698C721.141 261.012 719.889 182.321 718.096 103.623C717.484 77.2329 722.211 60.9855 744.534 48.017C747.98 46.0197 750.975 43.9511 753.519 41.8114C753.773 41.6027 753.956 41.3201 754.041 41.0029C754.127 40.6857 754.112 40.3498 753.997 40.0418C753.883 39.7337 753.675 39.469 753.403 39.2843C753.131 39.0997 752.808 39.0044 752.48 39.0116L579.979 40.5555C578.59 40.5735 578.008 41.2747 578.232 42.6592L588.233 102.88C588.264 103.256 588.16 103.63 587.939 103.936C587.718 104.241 587.395 104.458 587.028 104.546C586.661 104.635 586.275 104.589 585.939 104.418C585.603 104.247 585.339 103.962 585.195 103.613L581.895 93.0966C581.735 92.6596 581.427 92.292 581.025 92.0569C580.623 91.8219 580.151 91.734 579.691 91.8084C579.232 91.8827 578.812 92.1146 578.505 92.4644C578.197 92.8141 578.021 93.2598 578.007 93.725L582.803 359.344C582.803 359.963 583.037 360.559 583.457 361.014C583.877 361.469 584.453 361.749 585.071 361.8C585.689 361.85 586.302 361.666 586.791 361.285C587.279 360.904 587.606 360.354 587.707 359.743L590.197 346.492C590.239 346.303 590.332 346.128 590.465 345.987C590.599 345.846 590.767 345.745 590.951 345.694C591.135 345.643 591.327 345.646 591.507 345.701C591.686 345.757 591.845 345.863 591.965 346.007ZM761.242 402.273L767.996 405.423C768.121 405.48 768.255 405.512 768.393 405.516C768.53 405.521 768.666 405.499 768.795 405.451C768.923 405.402 769.041 405.329 769.141 405.235C769.241 405.142 769.321 405.029 769.378 404.904L769.678 404.284C771.257 400.883 772.323 397.412 772.641 394.633C772.96 391.854 772.505 389.994 771.376 389.463L771.221 389.388C770.082 388.89 768.37 389.755 766.459 391.794C764.549 393.834 762.594 396.882 761.023 400.272L760.723 400.893C760.666 401.018 760.634 401.152 760.629 401.289C760.625 401.426 760.647 401.563 760.695 401.691C760.744 401.819 760.817 401.937 760.911 402.037C761.005 402.137 761.117 402.217 761.242 402.273ZM571.777 345.074L575.086 356.284C575.149 356.539 575.3 356.762 575.512 356.917C575.724 357.071 575.983 357.147 576.245 357.129C576.506 357.112 576.754 357.004 576.943 356.823C577.133 356.642 577.253 356.401 577.283 356.14C577.828 352.536 578.015 348.128 577.844 342.914C576.008 288.6 574.542 211.221 573.444 110.78C573.393 104.794 571.498 101.517 567.762 100.949C566.396 100.735 565.82 99.9465 566.034 98.582L574.343 43.2492C574.394 42.9003 574.369 42.5446 574.27 42.206C574.172 41.8675 574.002 41.554 573.771 41.2868C573.541 41.0195 573.257 40.8046 572.936 40.6566C572.616 40.5086 572.268 40.4309 571.915 40.4288C485.954 39.7711 399.913 39.8081 313.791 40.5398C307.542 40.5824 302.481 40.0699 301.963 47.6687C301.482 54.2521 301.874 60.6443 303.137 66.8454C303.411 68.1522 304.218 68.8354 305.556 68.8951C365.24 72.206 409.818 99.5292 439.289 150.865C450.787 170.884 457.07 193.27 458.137 218.024C458.171 218.89 458.398 219.739 458.802 220.507C459.206 221.275 459.778 221.945 460.475 222.467C461.172 222.989 461.977 223.35 462.833 223.525C463.688 223.7 464.573 223.684 465.422 223.479L481.457 219.494C481.758 219.422 482.071 219.423 482.371 219.494C482.671 219.566 482.951 219.708 483.186 219.907C483.422 220.107 483.607 220.359 483.726 220.643C483.846 220.927 483.897 221.236 483.876 221.544L483.613 225.093C483.573 225.741 483.281 226.349 482.799 226.793C482.317 227.236 481.681 227.481 481.021 227.477L460.226 227.4C459.043 227.39 458.433 227.976 458.397 229.158C455.668 313.168 392.908 379.073 307.794 381.256C306.175 381.302 305.362 382.135 305.358 383.754L305.483 405.295C305.482 407.196 306.433 408.147 308.336 408.148L575.362 407.344C575.846 407.341 576.324 407.235 576.764 407.035C577.203 406.835 577.595 406.544 577.911 406.182C578.228 405.82 578.463 405.396 578.6 404.937C578.738 404.479 578.774 403.997 578.708 403.524L570.392 345.4C570.373 345.22 570.422 345.036 570.529 344.885C570.635 344.734 570.792 344.627 570.968 344.585C571.143 344.544 571.324 344.571 571.474 344.662C571.624 344.753 571.733 344.9 571.777 345.074ZM776.683 382.149C776.336 382.502 776.136 382.972 776.121 383.467L775.743 401.931C775.734 402.326 775.843 402.714 776.058 403.046C776.272 403.378 776.582 403.637 776.946 403.79C777.31 403.944 777.712 403.984 778.1 403.906C778.487 403.827 778.842 403.635 779.118 403.352L823.824 358.261C824.188 357.888 824.39 357.387 824.384 356.866L824.597 337.594C824.599 337.203 824.484 336.82 824.266 336.494C824.049 336.169 823.739 335.916 823.376 335.767C823.014 335.619 822.615 335.582 822.232 335.661C821.848 335.74 821.497 335.932 821.223 336.212L776.683 382.149ZM1319.75 233.67C1314.86 231.498 1305.49 232.121 1300.02 232.654C1298.63 232.801 1297.91 233.555 1297.85 234.917C1294.65 306.177 1242.07 371.719 1166.47 369.848C1164.8 369.818 1163.97 370.638 1163.99 372.308L1164.08 393.58C1164.08 393.975 1164.17 394.366 1164.33 394.725C1164.5 395.084 1164.74 395.404 1165.04 395.663C1165.33 395.922 1165.69 396.114 1166.07 396.226C1166.45 396.338 1166.84 396.368 1167.24 396.314C1194.78 392.873 1220.69 386.101 1244.11 371.307C1291.91 341.167 1317.72 296.256 1321.52 236.576C1321.56 235.977 1321.41 235.378 1321.09 234.86C1320.78 234.341 1320.31 233.926 1319.75 233.67ZM822.171 369.747C821.339 368.96 818.956 369.877 815.547 372.294C812.137 374.712 807.981 378.433 803.991 382.64C800.001 386.846 796.505 391.193 794.272 394.724C792.039 398.255 791.251 400.681 792.083 401.468C792.915 402.255 795.298 401.339 798.707 398.922C802.116 396.504 806.273 392.783 810.263 388.576C814.253 384.37 817.749 380.023 819.982 376.492C822.215 372.961 823.002 370.535 822.171 369.747ZM299.034 380.984C214.824 378.454 156.559 312.115 149.488 230.93C149.339 229.364 148.493 228.579 146.95 228.573L126.272 228.61C125.977 228.609 125.685 228.667 125.412 228.781C125.14 228.895 124.893 229.062 124.687 229.274C124.481 229.485 124.32 229.736 124.213 230.011C124.106 230.285 124.055 230.579 124.064 230.874C124.926 267.551 135.509 300.287 155.815 329.081C189.273 376.563 236.221 403.226 296.659 409.071C297.291 409.134 297.93 409.061 298.532 408.858C299.135 408.656 299.687 408.327 300.152 407.894C300.617 407.462 300.985 406.935 301.231 406.349C301.476 405.764 301.594 405.132 301.576 404.498L301.066 383.039C301.05 382.497 300.83 381.982 300.452 381.599C300.074 381.217 299.566 380.997 299.034 380.984ZM1156.48 370.17C1082.94 372.087 1029.33 308.077 1023.66 239.283C1023.54 237.872 1022.75 237.111 1021.31 237.002L1004.63 235.831C1001.44 235.615 999.942 237.112 1000.14 240.321C1005.54 326.499 1069.74 389.909 1156.5 395.104C1158.35 395.208 1159.26 394.336 1159.24 392.486L1159.06 372.68C1159.04 370.959 1158.18 370.122 1156.48 370.17ZM774.382 371.311C771.951 368.337 771.262 364.774 772.314 360.624C773.56 355.547 772.355 354.869 768.7 358.59L741.665 385.995C741.446 386.215 741.272 386.476 741.154 386.763C741.035 387.05 740.975 387.356 740.975 387.664C740.976 387.972 741.037 388.276 741.156 388.559C741.276 388.841 741.45 389.096 741.669 389.309L750.89 398.284C752.192 399.526 753.452 399.497 754.67 398.197C774.556 376.82 794.897 355.848 815.694 335.282C824.53 326.496 825.271 318.162 821.654 306.956C821.145 305.395 820.332 305.213 819.216 306.41C807.652 318.994 795.696 331.186 783.35 342.985C774.548 351.423 773.916 359.178 776.222 370.401C776.262 370.634 776.226 370.877 776.119 371.09C776.011 371.304 775.839 371.476 775.628 371.58C775.418 371.684 775.181 371.714 774.956 371.666C774.73 371.617 774.528 371.492 774.382 371.311ZM773.059 346.664C773.184 346.53 773.278 346.371 773.336 346.197C773.394 346.024 773.413 345.839 773.393 345.658L771.052 325.764C771.023 325.526 770.928 325.301 770.778 325.115C770.627 324.929 770.427 324.789 770.2 324.711C769.974 324.634 769.73 324.622 769.496 324.677C769.263 324.731 769.05 324.851 768.882 325.021L727.339 367.066C727.13 367.278 727.003 367.556 726.979 367.852C726.955 368.148 727.035 368.443 727.205 368.686L736.605 382.553C736.711 382.716 736.853 382.853 737.02 382.953C737.187 383.053 737.374 383.113 737.568 383.129C737.762 383.145 737.957 383.117 738.139 383.046C738.32 382.975 738.482 382.863 738.613 382.72L773.059 346.664ZM1037.27 233.056L1040.75 230.853C1041.9 230.119 1043.14 229.743 1044.48 229.726L1153.91 228.653C1155.46 228.659 1156.29 227.89 1156.43 226.347L1158.22 203.933C1158.27 203.316 1158.59 202.952 1159.21 202.841L1160.79 202.512C1160.94 202.482 1161.09 202.485 1161.24 202.52C1161.38 202.555 1161.52 202.622 1161.64 202.716C1161.76 202.81 1161.86 202.928 1161.92 203.063C1161.99 203.198 1162.03 203.347 1162.04 203.498L1162.38 227.426C1162.4 227.945 1162.6 228.44 1162.95 228.824C1163.29 229.207 1163.76 229.454 1164.26 229.521L1170.1 230.293C1170.54 230.297 1170.96 230.476 1171.27 230.79C1171.57 231.104 1171.74 231.528 1171.74 231.967C1171.74 232.407 1171.56 232.827 1171.24 233.134C1170.93 233.442 1170.5 233.612 1170.06 233.608L1164.79 234.177C1163.32 234.35 1162.6 235.156 1162.62 236.595L1163.78 358.514C1163.78 359.059 1163.9 359.596 1164.12 360.094C1164.35 360.591 1164.67 361.037 1165.07 361.404C1165.47 361.771 1165.95 362.051 1166.46 362.228C1166.98 362.404 1167.53 362.472 1168.07 362.428C1237.67 356.939 1286.11 305.286 1288.56 235.346C1288.63 233.213 1287.61 232.16 1285.47 232.188L1226.3 233.148C1225.33 233.161 1224.87 232.678 1224.94 231.701C1224.98 231.135 1225.11 230.594 1225.34 230.077C1225.99 228.63 1227.1 227.909 1228.67 227.915L1284.23 228.543C1284.82 228.55 1285.4 228.43 1285.95 228.191C1286.49 227.952 1286.97 227.599 1287.37 227.156C1287.76 226.714 1288.06 226.191 1288.24 225.624C1288.42 225.056 1288.48 224.456 1288.41 223.864C1280.23 155.025 1231.93 108.057 1162.94 104.096C1161.5 104.012 1160.79 104.69 1160.81 106.128L1161.15 147.205C1161.17 147.604 1161.04 147.995 1160.79 148.31C1160.55 148.625 1160.2 148.843 1159.81 148.926C1159.42 149.01 1159.01 148.953 1158.66 148.766C1158.31 148.578 1158.03 148.273 1157.88 147.903C1153.9 138.667 1157.37 117.464 1155.95 106.422C1155.85 105.639 1155.44 104.929 1154.81 104.446C1154.18 103.964 1153.39 103.748 1152.6 103.845C1096.88 110.862 1059.11 140.038 1039.28 191.371C1034.08 204.798 1032.44 218.577 1034.37 232.709C1034.54 233.965 1034.32 235.15 1033.69 236.263C1033.08 237.324 1032.8 238.176 1032.83 238.818C1036.54 307.329 1087.69 357.69 1154.87 362.021C1155.36 362.052 1155.85 361.981 1156.31 361.814C1156.77 361.646 1157.19 361.386 1157.54 361.048C1157.9 360.711 1158.18 360.303 1158.37 359.852C1158.56 359.401 1158.65 358.916 1158.64 358.426C1158.12 318.238 1160.4 276.472 1156.37 236.444C1156.19 234.777 1155.27 233.954 1153.6 233.975L1037.84 235.053C1037.6 235.053 1037.37 234.976 1037.19 234.834C1037 234.692 1036.86 234.494 1036.8 234.268C1036.74 234.042 1036.75 233.802 1036.83 233.583C1036.92 233.365 1037.07 233.18 1037.27 233.056ZM445.75 226.663L411.85 227.449C411.25 227.454 410.672 227.685 410.229 228.096C409.785 228.508 409.507 229.071 409.448 229.677C404.915 278.705 380.16 311.385 335.185 327.718C326.699 330.795 316.86 330.692 307.607 331.159C306.799 331.199 306.039 331.551 305.485 332.14C304.932 332.73 304.628 333.511 304.639 334.319L305 371.041C305.019 372.505 305.761 373.176 307.225 373.054C388.842 366.061 444.037 311.7 449.074 230.127C449.1 229.674 449.033 229.22 448.877 228.795C448.72 228.369 448.478 227.981 448.166 227.656C447.853 227.33 447.477 227.074 447.061 226.903C446.645 226.732 446.199 226.65 445.75 226.663ZM298.664 331.699C242.21 327.575 202.746 286.042 198.199 229.951C198.106 228.745 197.456 228.149 196.247 228.165L161.569 228.422C161.191 228.426 160.818 228.508 160.472 228.661C160.127 228.815 159.816 229.037 159.56 229.315C159.303 229.592 159.106 229.919 158.981 230.275C158.855 230.632 158.804 231.01 158.83 231.387C164.508 312.281 220.002 364.282 298.352 373.054C298.692 373.094 299.036 373.06 299.361 372.956C299.687 372.851 299.986 372.678 300.239 372.449C300.492 372.219 300.693 371.938 300.827 371.624C300.962 371.31 301.028 370.971 301.021 370.63L300.62 333.793C300.603 332.483 299.951 331.785 298.664 331.699ZM770.739 316.519C771.127 316.14 771.355 315.626 771.376 315.085L771.735 298.162C771.747 297.739 771.633 297.322 771.406 296.965C771.179 296.608 770.851 296.327 770.463 296.158C770.075 295.989 769.645 295.94 769.229 296.017C768.813 296.094 768.429 296.293 768.127 296.59L727.977 335.957C727.775 336.154 727.616 336.389 727.506 336.649C727.397 336.908 727.341 337.187 727.34 337.468L727.519 354.191C727.522 354.607 727.648 355.013 727.881 355.358C728.114 355.703 728.443 355.971 728.827 356.131C729.212 356.29 729.635 356.333 730.044 356.254C730.452 356.175 730.829 355.977 731.126 355.686L770.739 316.519ZM822.668 295.959C822.801 295.828 822.906 295.671 822.977 295.498C823.048 295.325 823.082 295.139 823.08 294.952L822.209 275.463C822.193 275.202 822.103 274.95 821.949 274.738C821.795 274.525 821.585 274.361 821.341 274.263C821.098 274.165 820.831 274.138 820.573 274.186C820.315 274.233 820.076 274.352 819.883 274.53L775.275 318.233C775.13 318.365 775.015 318.527 774.938 318.708C774.86 318.888 774.822 319.083 774.825 319.279L775.685 340.965C775.703 341.231 775.796 341.486 775.955 341.7C776.113 341.914 776.33 342.078 776.58 342.173C776.829 342.267 777.1 342.287 777.361 342.232C777.622 342.176 777.861 342.047 778.05 341.859L822.668 295.959ZM771.006 286.571C771.228 286.349 771.399 286.082 771.508 285.788C771.617 285.494 771.662 285.18 771.64 284.867L770.754 267.113C770.736 266.685 770.594 266.272 770.345 265.924C770.096 265.576 769.75 265.308 769.351 265.154C768.951 264.999 768.515 264.965 768.096 265.055C767.678 265.144 767.294 265.354 766.993 265.658L727.842 304.781C727.46 305.165 727.233 305.676 727.205 306.216L726.141 325.306C726.119 325.746 726.231 326.182 726.461 326.558C726.69 326.934 727.028 327.232 727.43 327.414C727.832 327.596 728.279 327.653 728.713 327.578C729.148 327.502 729.55 327.298 729.866 326.992L771.006 286.571ZM308.426 322.901C356.942 318.765 401.269 280.153 399.368 228.767C399.296 227.15 398.462 226.364 396.868 226.41L307.319 228.613C306.719 228.63 306.149 228.876 305.73 229.299C305.31 229.721 305.075 230.287 305.072 230.877L304.718 319.519C304.717 319.988 304.814 320.452 305.004 320.881C305.194 321.31 305.472 321.696 305.82 322.014C306.169 322.332 306.58 322.575 307.029 322.727C307.477 322.88 307.953 322.939 308.426 322.901ZM288.347 223.348L297.253 222.885C297.659 222.867 298.057 222.764 298.421 222.584C298.785 222.404 299.108 222.15 299.369 221.839C299.629 221.527 299.823 221.165 299.936 220.775C300.049 220.385 300.08 219.976 300.026 219.574C299.058 212.392 298.965 205.2 299.746 197.996C299.793 197.3 300.115 196.652 300.641 196.193C301.167 195.735 301.854 195.504 302.55 195.551C303.246 195.598 303.895 195.92 304.354 196.445C304.813 196.97 305.045 197.656 304.997 198.352L304.643 218.627C304.605 221.608 306.064 223.067 309.021 223.002L394.875 221.426C398.963 221.348 400.647 219.283 399.925 215.233C390.659 163.07 359.776 133.745 307.277 127.258C304.676 126.958 303.418 128.104 303.503 130.698L304.005 145.645C304.015 146.364 303.766 146.996 303.258 147.543C302.649 148.193 302.009 148.394 301.337 148.146C300.174 147.672 299.558 146.794 299.49 145.51L298.677 130.414C298.658 130.09 298.574 129.773 298.429 129.482C298.284 129.192 298.081 128.934 297.833 128.724C297.585 128.515 297.296 128.358 296.985 128.263C296.674 128.169 296.347 128.139 296.024 128.175C257.243 132.3 230.083 152.089 214.546 187.54C209.85 198.263 207.862 209.567 208.582 221.453C208.676 222.737 209.353 223.396 210.614 223.431C220.572 223.816 230.499 223.777 240.395 223.315C241.68 223.246 242.608 223.453 243.18 223.934C244.09 224.693 244.414 225.87 244.152 227.466C243.915 229.011 242.998 229.742 241.403 229.66L213.952 227.935C210.296 227.7 208.518 229.406 208.617 233.053C209.899 281.325 249.942 316.915 296.937 323.474C299.308 323.828 300.491 322.798 300.485 320.383L299.677 231.294C299.672 230.723 299.456 230.174 299.072 229.758C298.688 229.342 298.163 229.088 297.603 229.047L288.256 228.166C287.668 228.083 287.132 227.788 286.747 227.337C286.362 226.885 286.156 226.309 286.167 225.716C286.179 225.124 286.406 224.556 286.808 224.119C287.21 223.683 287.757 223.409 288.347 223.348ZM820.251 267.203C820.759 266.695 821.065 266.02 821.113 265.303L822.06 249.067C822.094 248.464 821.943 247.866 821.628 247.352C821.313 246.838 820.848 246.432 820.296 246.188C819.744 245.944 819.131 245.874 818.538 245.987C817.945 246.1 817.4 246.39 816.977 246.82L775.051 289.062C774.773 289.342 774.554 289.675 774.406 290.041C774.259 290.407 774.185 290.799 774.191 291.193L774.418 305.719C774.425 306.299 774.601 306.865 774.927 307.347C775.252 307.828 775.712 308.203 776.248 308.426C776.785 308.649 777.376 308.709 777.947 308.6C778.518 308.491 779.044 308.217 779.46 307.812L820.251 267.203ZM770.295 255.519C770.781 255.022 771.05 254.353 771.042 253.659L771.097 237.087C771.097 236.571 770.945 236.066 770.658 235.637C770.372 235.207 769.965 234.871 769.489 234.671C769.013 234.472 768.488 234.417 767.98 234.514C767.473 234.612 767.005 234.856 766.637 235.218L726.835 274.696C726.349 275.193 726.08 275.862 726.087 276.556L726.149 293.165C726.156 293.678 726.314 294.177 726.603 294.601C726.892 295.025 727.3 295.354 727.774 295.549C728.249 295.744 728.771 295.796 729.275 295.697C729.779 295.599 730.242 295.355 730.609 294.995L770.295 255.519ZM820.433 236.678C820.719 236.401 820.893 236.028 820.921 235.631L821.893 215.386C821.91 215.061 821.828 214.737 821.657 214.459C821.487 214.181 821.237 213.96 820.939 213.827C820.641 213.693 820.31 213.653 819.988 213.71C819.667 213.768 819.371 213.921 819.138 214.15L774.379 258.086C774.219 258.242 774.094 258.429 774.01 258.636C773.927 258.843 773.887 259.064 773.893 259.287L774.497 279.049C774.496 279.373 774.593 279.689 774.774 279.957C774.955 280.226 775.212 280.433 775.513 280.554C775.813 280.674 776.143 280.702 776.46 280.634C776.776 280.565 777.065 280.403 777.289 280.169L820.433 236.678ZM772.422 205.392L776.06 215.172C776.78 217.166 777.915 217.434 779.465 215.975C790.794 205.063 802.031 193.998 813.176 182.781C822.239 173.645 822.169 165.283 819.356 153.643C819.004 152.26 818.32 152.063 817.304 153.053C788.418 180.533 760.014 208.469 732.092 236.861C723.943 245.098 723.168 253.702 726.695 263.946C727.257 265.583 728.16 265.803 729.404 264.605L767.204 228.389C768.584 227.072 769.652 225.464 770.33 223.681C771.007 221.899 771.278 219.988 771.121 218.087L770.153 205.883C770.12 205.735 770.118 205.581 770.145 205.431C770.172 205.281 770.228 205.138 770.311 205.01C770.393 204.882 770.5 204.771 770.626 204.684C770.751 204.597 770.892 204.536 771.041 204.504C771.19 204.472 771.344 204.469 771.494 204.496C771.644 204.523 771.788 204.58 771.916 204.662C772.044 204.744 772.155 204.851 772.242 204.976C772.329 205.102 772.39 205.243 772.422 205.392ZM820.264 205.812C820.419 205.66 820.542 205.479 820.626 205.28C820.709 205.08 820.752 204.865 820.751 204.649L820.386 185.462C820.379 185.146 820.28 184.84 820.101 184.58C819.922 184.32 819.67 184.118 819.378 183.999C819.085 183.879 818.764 183.849 818.454 183.909C818.144 183.97 817.858 184.121 817.633 184.341L773.728 228.729C773.564 228.889 773.436 229.083 773.352 229.296C773.268 229.51 773.231 229.739 773.243 229.968L774.521 248.257C774.543 248.566 774.652 248.862 774.837 249.111C775.021 249.36 775.273 249.55 775.563 249.66C775.853 249.77 776.168 249.794 776.471 249.731C776.774 249.667 777.053 249.518 777.274 249.301L820.264 205.812ZM1162.74 64.2122C1250 64.5447 1326.56 137.236 1329.78 224.946C1329.81 225.825 1330.18 226.657 1330.82 227.267C1331.45 227.878 1332.3 228.218 1333.18 228.216L1370.06 227.892C1372.01 227.867 1372.91 226.879 1372.76 224.928C1369.31 176.222 1353.35 132.264 1322.11 94.7481C1284.53 49.645 1223.57 16.7149 1161.65 19.0597C1160.21 19.104 1159.51 19.8453 1159.56 21.2835L1160.27 61.8162C1160.32 63.4085 1161.14 64.2072 1162.74 64.2122ZM1300.36 228.989L1319.52 228.393C1320.84 228.35 1321.44 227.675 1321.35 226.366C1314.63 139.164 1249.74 73.8743 1161.99 71.7754C1161.66 71.7688 1161.34 71.8287 1161.04 71.9513C1160.73 72.0739 1160.46 72.2566 1160.24 72.4878C1160.01 72.7189 1159.84 72.9935 1159.73 73.2942C1159.61 73.5948 1159.57 73.915 1159.59 74.2344L1160.93 94.1798C1161.02 95.6173 1161.8 96.3779 1163.27 96.4616C1238.59 100.495 1290.42 153.005 1298.02 226.938C1298.06 227.51 1298.33 228.042 1298.77 228.424C1299.21 228.806 1299.77 229.008 1300.36 228.989ZM1153.35 71.9645C1069.75 72.201 1000.61 148.902 999.962 229.725C999.958 231.369 1000.78 232.207 1002.43 232.237L1020.45 232.542C1022.04 232.547 1022.9 231.753 1023.04 230.158C1028.03 166.762 1059.43 124.425 1117.26 103.147C1128.62 98.9921 1141.96 98.1254 1154.43 95.8056C1155.84 95.5303 1156.53 94.6735 1156.52 93.235L1156.36 74.9315C1156.36 72.9275 1155.35 71.9385 1153.35 71.9645ZM1002.74 169.994C1028.27 112.215 1072.06 77.3994 1134.09 65.5472C1140.29 64.3492 1147.35 64.7972 1154.25 64.3223C1154.96 64.2734 1155.61 63.9539 1156.09 63.4305C1156.56 62.9072 1156.82 62.2206 1156.8 61.5145L1156.06 22.6776C1156.05 22.1364 1155.93 21.603 1155.71 21.1092C1155.49 20.6153 1155.17 20.1709 1154.77 19.8023C1154.37 19.4337 1153.91 19.1484 1153.4 18.9634C1152.89 18.7783 1152.35 18.6972 1151.81 18.7249C1095.03 21.4139 1047.03 43.3738 1007.8 84.6046C971.62 122.61 951.669 169.77 947.95 226.083C947.897 226.86 948.004 227.638 948.265 228.371C948.526 229.104 948.935 229.776 949.467 230.344C950 230.912 950.643 231.364 951.358 231.673C952.073 231.981 952.844 232.14 953.623 232.137L988.074 232.23C989.617 232.236 990.443 231.467 990.552 229.924C992.528 203.873 996.59 183.896 1002.74 169.994ZM773.367 180.098L774.759 183.317C774.889 183.611 775.087 183.869 775.336 184.07C775.586 184.272 775.881 184.41 776.195 184.474C776.51 184.538 776.835 184.525 777.144 184.437C777.453 184.35 777.736 184.189 777.97 183.97C789.352 173.237 800.669 162.402 811.921 151.465C821.216 142.404 821.835 133.609 819.06 121.853C818.705 120.29 817.944 120.082 816.775 121.227C789.582 148.3 762.206 175.22 734.649 201.989C724.858 211.519 720.837 219.742 726.058 232.623C726.695 234.182 727.598 234.363 728.765 233.166L771.111 190.571C771.494 190.192 771.77 189.718 771.912 189.195C772.054 188.673 772.057 188.121 771.921 187.593L770.256 181.179C770.17 180.783 770.232 180.37 770.43 180.016C770.628 179.663 770.949 179.394 771.332 179.261C771.715 179.128 772.134 179.14 772.509 179.294C772.884 179.448 773.189 179.734 773.367 180.098ZM305.778 118.76C363.087 123.335 403.618 160.885 409.008 219.509C409.128 220.792 409.843 221.438 411.155 221.446L447.686 221.242C449.126 221.249 449.76 220.535 449.587 219.098C440.014 138.408 389.423 83.6849 307.023 77.894C306.403 77.8485 305.78 77.9325 305.195 78.1406C304.609 78.3488 304.073 78.6765 303.622 79.103C303.17 79.5294 302.812 80.0452 302.571 80.6174C302.329 81.1897 302.21 81.8059 302.221 82.4267L302.492 115.219C302.49 116.109 302.827 116.967 303.436 117.623C304.045 118.279 304.881 118.685 305.778 118.76ZM148.081 131.365C133.917 154.711 121.578 193.833 124.347 222.893C124.467 224.227 125.208 224.873 126.571 224.83L145.967 224.193C147.69 224.145 148.617 223.259 148.749 221.536C154.973 146.177 193.758 96.731 265.105 73.1965C271.84 70.9767 282.163 69.7381 296.073 69.4805C297.847 69.4318 298.697 68.5344 298.623 66.7883L297.636 44.2564C297.565 42.7158 296.758 41.994 295.216 42.0911C230.415 46.7597 181.369 76.5179 148.081 131.365ZM198.394 221.2C200.44 164.754 242.012 124.944 297.178 118.988C298.231 118.871 298.751 118.286 298.737 117.233L298.235 81.4764C298.227 80.8846 298.092 80.3014 297.841 79.7657C297.589 79.23 297.226 78.754 296.775 78.3696C296.325 77.9852 295.798 77.7012 295.229 77.5365C294.66 77.3718 294.062 77.3302 293.476 77.4145C226.217 87.0223 182.826 123.361 163.3 186.432C159.968 197.188 158.605 209.076 159.211 222.094C159.28 223.455 160.009 224.126 161.397 224.108L195.765 223.739C197.463 223.717 198.339 222.871 198.394 221.2ZM768.733 161.853C768.865 161.729 768.969 161.578 769.04 161.412C769.111 161.245 769.147 161.065 769.145 160.884L768.262 137.464C768.258 137.206 768.178 136.954 768.031 136.741C767.884 136.528 767.677 136.363 767.436 136.268C767.196 136.172 766.932 136.149 766.679 136.203C766.426 136.256 766.194 136.384 766.013 136.569L723.841 177.735C723.709 177.859 723.604 178.009 723.533 178.176C723.463 178.343 723.427 178.522 723.429 178.704L724.462 201.813C724.473 202.064 724.556 202.306 724.7 202.512C724.845 202.717 725.046 202.876 725.279 202.971C725.512 203.065 725.767 203.091 726.014 203.044C726.261 202.998 726.49 202.882 726.673 202.709L768.733 161.853ZM769.098 127.588C769.326 127.37 769.502 127.104 769.611 126.809C769.721 126.513 769.762 126.197 769.732 125.884L768.173 106.828C768.138 106.436 767.992 106.063 767.753 105.751C767.513 105.438 767.19 105.2 766.821 105.064C766.452 104.928 766.052 104.899 765.667 104.98C765.282 105.062 764.928 105.25 764.646 105.525L723.925 145.516C723.722 145.712 723.561 145.946 723.451 146.206C723.342 146.466 723.287 146.745 723.288 147.027L723.768 166.174C723.776 166.579 723.902 166.973 724.131 167.308C724.359 167.642 724.681 167.903 725.055 168.058C725.43 168.212 725.842 168.254 726.24 168.179C726.638 168.103 727.006 167.913 727.298 167.631L769.098 127.588ZM771.507 131.834C771.319 132.019 771.174 132.244 771.084 132.492C770.994 132.74 770.96 133.004 770.985 133.267L772.911 153.86C772.944 154.194 773.071 154.513 773.278 154.778C773.485 155.043 773.763 155.243 774.08 155.357C774.397 155.47 774.74 155.49 775.068 155.416C775.396 155.342 775.697 155.176 775.934 154.938L819.24 111.946C819.413 111.774 819.549 111.569 819.639 111.342C819.729 111.115 819.771 110.873 819.763 110.629L818.908 89.3285C818.896 88.9839 818.783 88.6503 818.584 88.3687C818.385 88.087 818.108 87.8695 817.787 87.7428C817.466 87.6161 817.115 87.5857 816.776 87.6552C816.438 87.7248 816.128 87.8914 815.883 88.1345L771.507 131.834ZM768.383 96.1885C768.6 95.9795 768.769 95.7257 768.879 95.4448C768.988 95.1639 769.036 94.8626 769.017 94.5617L767.478 71.0734C767.449 70.6785 767.308 70.3001 767.071 69.9825C766.835 69.6649 766.512 69.4213 766.142 69.2805C765.771 69.1396 765.368 69.1073 764.98 69.1872C764.592 69.2672 764.235 69.4561 763.95 69.7318L723.425 109.952C723.222 110.147 723.061 110.382 722.951 110.642C722.842 110.902 722.787 111.181 722.789 111.463L723.201 134.349C723.209 134.754 723.335 135.148 723.563 135.483C723.792 135.817 724.113 136.078 724.488 136.233C724.863 136.387 725.275 136.429 725.673 136.354C726.071 136.278 726.439 136.088 726.731 135.806L768.383 96.1885ZM772.86 96.3617C772.106 97.0687 771.662 98.0435 771.622 99.0754L770.882 116.389C770.846 117.18 771.051 117.964 771.469 118.638C771.887 119.311 772.499 119.843 773.225 120.163C773.951 120.482 774.756 120.576 775.536 120.43C776.316 120.284 777.033 119.906 777.594 119.346L815.755 81.2379C816.346 80.6546 816.736 79.8996 816.871 79.081C817.006 78.2624 816.878 77.4222 816.506 76.6806L811.596 66.9557C811.32 66.4082 810.919 65.933 810.425 65.5681C809.932 65.2032 809.36 64.9587 808.755 64.8542C808.15 64.7497 807.529 64.788 806.941 64.9662C806.354 65.1444 805.816 65.4574 805.371 65.8802L772.86 96.3617ZM725.285 101.719L779.486 48.0646C779.558 47.9852 779.598 47.8814 779.596 47.7741C779.595 47.6669 779.553 47.5641 779.478 47.4866L779.283 47.2965C776.446 44.4375 771.746 43.6553 766.216 45.1218C760.686 46.5883 754.78 50.1835 749.795 55.1168L732.579 72.1427C727.593 77.0771 723.938 82.946 722.418 88.4585C720.898 93.9709 721.637 98.6753 724.473 101.537L724.668 101.727C724.709 101.768 724.757 101.801 724.81 101.823C724.864 101.846 724.921 101.857 724.979 101.856C725.036 101.855 725.093 101.843 725.146 101.819C725.199 101.796 725.246 101.761 725.285 101.719ZM772.04 62.9213C771.555 63.4798 771.29 64.1955 771.295 64.9349L771.209 85.0529C771.206 85.6553 771.383 86.2449 771.717 86.7468C772.05 87.2488 772.525 87.6406 773.082 87.8727C773.638 88.1048 774.251 88.1668 774.843 88.0507C775.435 87.9346 775.979 87.6458 776.406 87.2207L803.448 60.3943C803.79 60.0502 804.045 59.6297 804.191 59.1677C804.337 58.7057 804.37 58.2155 804.289 57.7379C804.207 57.2602 804.013 56.809 803.721 56.4216C803.43 56.0343 803.05 55.722 802.614 55.5107L787.708 48.4589C787.112 48.1794 786.441 48.1004 785.796 48.2338C785.151 48.3672 784.566 48.7059 784.13 49.199L772.04 62.9213Z" fill="#1B8EFF" fill-opacity="0.5"/>
<path d="M525.001 49H594.001V415.5L525.001 416.5V49Z" fill="white"/>
<path d="M572.751 244C570.334 244 568.584 244.667 567.501 246C566.39 247.333 565.834 248.972 565.834 250.917C565.834 252.056 565.987 253.167 566.293 254.25L563.126 256.083L544.334 240.583V259.917L539.334 258.917V233.083L543.918 234L561.834 249.625L562.126 249.417C561.848 248.472 561.709 247.542 561.709 246.625C561.709 244.042 562.654 242.056 564.543 240.667C566.432 239.25 568.793 238.542 571.626 238.542C573.598 238.542 576.154 238.847 579.293 239.458C582.404 240.069 585.001 240.75 587.084 241.5C590.668 242.806 593.501 244.847 595.584 247.625C597.64 250.403 598.668 253.931 598.668 258.208C598.668 261.653 597.959 265.875 596.543 270.875L591.334 269.875C592.89 265.097 593.668 260.889 593.668 257.25C593.668 254.25 593.001 251.931 591.668 250.292C590.334 248.653 588.418 247.389 585.918 246.5C584.168 245.889 581.945 245.319 579.251 244.792C576.529 244.264 574.362 244 572.751 244ZM598.001 201.812V207.146L582.001 204.021V228.021L577.834 227.229L538.168 199.146L540.501 195.062L576.584 220.562L577.001 220.646V203.062L566.001 200.938V195.604L577.001 197.729V192.396L582.001 193.354V198.688L598.001 201.812Z" fill="black"/>
</svg>
